<svg width="32" height="32" viewBox="0 0 32 32" fill="none" xmlns="http://www.w3.org/2000/svg">
<rect x="0.5" y="0.5" width="31" height="31" rx="15.5" fill="white"/>
<rect x="0.5" y="0.5" width="31" height="31" rx="15.5" stroke="#F0F0F0"/>
<path d="M11.8589 6.7761C11.5763 6.73363 11.5644 6.72862 11.6974 6.70883C11.9522 6.67082 12.5539 6.72262 12.9685 6.81815C13.9365 7.04118 14.8173 7.61249 15.7575 8.6271L16.0073 8.89668L16.3646 8.84099C17.87 8.60652 19.4013 8.79285 20.6822 9.36637C21.0346 9.52415 21.5901 9.83826 21.6595 9.91898C21.6817 9.94466 21.7223 10.1103 21.7498 10.2869C21.8449 10.8982 21.7973 11.3668 21.6044 11.7167C21.4995 11.9071 21.4936 11.9675 21.5642 12.1304C21.6205 12.2605 21.7775 12.3568 21.9331 12.3566C22.2514 12.3561 22.594 11.8574 22.7527 11.1635L22.8158 10.8878L22.9407 11.0249C23.6259 11.7774 24.1641 12.8035 24.2565 13.5339L24.2806 13.7243L24.1654 13.5512C23.9672 13.2533 23.768 13.0505 23.513 12.887C23.0533 12.5921 22.5672 12.4918 21.2799 12.426C20.1172 12.3666 19.4592 12.2704 18.8067 12.0642C17.6966 11.7133 17.137 11.2461 15.8183 9.56919C15.2326 8.8244 14.8705 8.41227 14.5104 8.0804C13.6922 7.32632 12.8881 6.93083 11.8589 6.7761Z" fill="#FF007A"/>
<path d="M21.9219 8.43935C21.9512 7.94027 22.021 7.61102 22.1614 7.31042C22.217 7.1914 22.2691 7.09399 22.2771 7.09399C22.2851 7.09399 22.261 7.18184 22.2234 7.28918C22.1213 7.58098 22.1046 7.98003 22.1748 8.44437C22.2641 9.03349 22.3148 9.11848 22.9573 9.7549C23.2586 10.0534 23.6091 10.4299 23.7362 10.5915L23.9672 10.8854L23.7362 10.6753C23.4536 10.4185 22.8039 9.9176 22.6603 9.84598C22.5642 9.79798 22.5498 9.79877 22.4905 9.85606C22.4358 9.90884 22.4242 9.9881 22.4167 10.363C22.4048 10.9472 22.3227 11.3222 22.1244 11.6971C22.0172 11.8999 22.0003 11.8566 22.0973 11.6277C22.1698 11.4568 22.1771 11.3817 22.1766 10.8161C22.1755 9.67981 22.0363 9.40662 21.22 8.93862C21.0132 8.82007 20.6725 8.64907 20.4629 8.55865C20.2533 8.46823 20.0868 8.38943 20.0928 8.38357C20.1159 8.36126 20.912 8.58645 21.2324 8.70588C21.7089 8.88359 21.7876 8.9066 21.8455 8.88518C21.8843 8.87084 21.903 8.76129 21.9219 8.43935Z" fill="#FF007A"/>
<path d="M12.4078 10.3833C11.8341 9.61783 11.4793 8.44422 11.5561 7.56691L11.5799 7.29541L11.7104 7.31852C11.9556 7.36188 12.3784 7.51441 12.5763 7.63094C13.1196 7.95072 13.3548 8.37175 13.5941 9.45293C13.6642 9.76957 13.7561 10.1279 13.7984 10.2493C13.8665 10.4446 14.1239 10.9007 14.3332 11.197C14.4839 11.4103 14.3838 11.5114 14.0506 11.4822C13.5417 11.4377 12.8524 10.9766 12.4078 10.3833Z" fill="#FF007A"/>
<path d="M21.226 16.0799C18.5453 15.0338 17.6012 14.1257 17.6012 12.5936C17.6012 12.3681 17.6092 12.1836 17.6189 12.1836C17.6287 12.1836 17.7325 12.258 17.8494 12.349C18.393 12.7715 19.0018 12.9521 20.6869 13.1903C21.6785 13.3306 22.2366 13.4438 22.7514 13.6093C24.3875 14.1352 25.3998 15.2026 25.6412 16.6564C25.7114 17.0788 25.6702 17.8709 25.5565 18.2885C25.4667 18.6182 25.1928 19.2126 25.1201 19.2354C25.0999 19.2417 25.0802 19.1669 25.075 19.065C25.0474 18.5192 24.7628 17.9877 24.2849 17.5896C23.7414 17.137 23.0113 16.7766 21.226 16.0799Z" fill="#FF007A"/>
<path d="M19.3442 16.5146C19.3105 16.3209 19.2523 16.0735 19.2147 15.9649L19.1463 15.7673L19.2734 15.9056C19.4491 16.0968 19.5881 16.3416 19.7059 16.6676C19.7957 16.9164 19.8058 16.9903 19.8051 17.3947C19.8045 17.7916 19.7932 17.8748 19.7103 18.0988C19.5794 18.4519 19.417 18.7023 19.1445 18.9711C18.6548 19.4541 18.0252 19.7216 17.1167 19.8325C16.9588 19.8518 16.4985 19.8843 16.0939 19.9047C15.0741 19.956 14.4029 20.0623 13.7998 20.2675C13.7131 20.2971 13.6357 20.315 13.6279 20.3074C13.6034 20.2838 14.0141 20.0466 14.3533 19.8882C14.8315 19.6649 15.3075 19.5431 16.3741 19.3709C16.901 19.2859 17.4451 19.1827 17.5833 19.1416C18.8881 18.7539 19.5588 17.7532 19.3442 16.5146Z" fill="#FF007A"/>
<path d="M20.573 18.63C20.2168 17.8879 20.135 17.1714 20.3301 16.5031C20.351 16.4317 20.3846 16.3733 20.4048 16.3733C20.425 16.3733 20.509 16.4174 20.5915 16.4712C20.7557 16.5783 21.0848 16.7586 21.9618 17.2221C23.0562 17.8004 23.6801 18.2481 24.1044 18.7597C24.476 19.2078 24.7059 19.7181 24.8166 20.3404C24.8793 20.6929 24.8426 21.541 24.7493 21.8959C24.455 23.0151 23.7712 23.8941 22.7958 24.4071C22.6529 24.4822 22.5247 24.5439 22.5108 24.5442C22.4969 24.5444 22.5489 24.4162 22.6265 24.259C22.9546 23.5942 22.9919 22.9476 22.7439 22.2278C22.592 21.7871 22.2823 21.2494 21.657 20.3405C20.9301 19.2839 20.7518 19.0026 20.573 18.63Z" fill="#FF007A"/>
<path d="M10.5041 22.6341C11.4989 21.8199 12.7366 21.2416 13.8641 21.0641C14.35 20.9875 15.1594 21.0179 15.6094 21.1295C16.3307 21.3084 16.9758 21.7091 17.3113 22.1866C17.6393 22.6532 17.78 23.0597 17.9264 23.9644C17.9842 24.3213 18.0471 24.6797 18.0661 24.7608C18.176 25.2296 18.3901 25.6044 18.6554 25.7926C19.0767 26.0915 19.8022 26.1101 20.5158 25.8403C20.6369 25.7945 20.7421 25.7628 20.7495 25.77C20.7754 25.7949 20.416 26.0281 20.1625 26.1508C19.8214 26.3159 19.5501 26.3798 19.1897 26.3798C18.5361 26.3798 17.9934 26.0575 17.5406 25.4004C17.4515 25.271 17.2512 24.8837 17.0955 24.5396C16.6174 23.4827 16.3813 23.1607 15.8262 22.8083C15.3431 22.5017 14.7202 22.4468 14.2515 22.6696C13.6358 22.9621 13.464 23.7247 13.905 24.208C14.0802 24.4 14.4071 24.5657 14.6743 24.5979C15.1742 24.6581 15.6039 24.2895 15.6039 23.8003C15.6039 23.4826 15.4779 23.3013 15.1608 23.1626C14.7276 22.9732 14.2621 23.1946 14.2643 23.589C14.2653 23.7572 14.3408 23.8628 14.5148 23.939C14.6263 23.988 14.6289 23.9919 14.5379 23.9735C14.1405 23.8937 14.0474 23.4293 14.367 23.121C14.7506 22.7509 15.5439 22.9142 15.8163 23.4194C15.9307 23.6316 15.944 24.0542 15.8442 24.3093C15.6209 24.8805 14.9698 25.1808 14.3093 25.0173C13.8596 24.9061 13.6765 24.7856 13.1343 24.2443C12.1922 23.3036 11.8264 23.1213 10.4682 22.9158L10.2079 22.8765L10.5041 22.6341Z" fill="#FF007A"/>
<path fill-rule="evenodd" clip-rule="evenodd" d="M3.39977 1.56265C6.54609 5.26393 11.3967 11.0266 11.6376 11.3492C11.8364 11.6156 11.7616 11.8551 11.421 12.0428C11.2315 12.1472 10.8421 12.253 10.6471 12.253C10.4266 12.253 10.1781 12.15 9.99719 11.9837C9.86928 11.8661 9.35316 11.1191 8.16167 9.32716C7.24999 7.95606 6.48704 6.81864 6.46624 6.79961C6.41812 6.75555 6.41894 6.75705 8.06871 9.61816C9.10463 11.4147 9.45433 12.0499 9.45433 12.1348C9.45433 12.3076 9.40573 12.3984 9.18583 12.6362C8.81924 13.0325 8.65539 13.4779 8.5371 14.3996C8.40444 15.4329 8.03157 16.1628 6.99817 17.412C6.39326 18.1432 6.29427 18.2772 6.14164 18.572C5.94935 18.9431 5.89649 19.151 5.87507 19.6196C5.85243 20.1152 5.89654 20.4353 6.05275 20.909C6.18947 21.3238 6.33218 21.5977 6.69707 22.1455C7.01196 22.6182 7.19332 22.9695 7.19332 23.1069C7.19332 23.2163 7.21484 23.2164 7.70281 23.1096C8.87051 22.854 9.81874 22.4045 10.352 21.8536C10.682 21.5126 10.7595 21.3243 10.762 20.8571C10.7637 20.5515 10.7526 20.4875 10.6674 20.3117C10.5286 20.0255 10.2761 19.7875 9.71931 19.4187C8.98986 18.9354 8.67832 18.5462 8.59223 18.0111C8.52162 17.572 8.60355 17.2623 9.00708 16.4425C9.42478 15.594 9.52828 15.2324 9.59831 14.3771C9.64352 13.8245 9.70615 13.6066 9.86995 13.4317C10.0408 13.2492 10.1946 13.1875 10.6173 13.1315C11.3066 13.0402 11.7455 12.8674 12.1063 12.5452C12.4192 12.2657 12.5502 11.9963 12.5703 11.5908L12.5855 11.2835L12.4106 11.0859C11.7773 10.3701 2.97562 1 2.93664 1C2.92832 1 3.13673 1.25321 3.39977 1.56265ZM7.54882 20.1803C7.69202 19.9345 7.61595 19.6185 7.37641 19.4642C7.15008 19.3183 6.79849 19.387 6.79849 19.5771C6.79849 19.6351 6.83162 19.6773 6.90619 19.7145C7.03174 19.7771 7.04088 19.8475 6.94207 19.9915C6.84201 20.1373 6.85009 20.2654 6.96485 20.3525C7.14984 20.4929 7.41167 20.4157 7.54882 20.1803Z" fill="#FF007A"/>
<path fill-rule="evenodd" clip-rule="evenodd" d="M13.0205 13.2927C12.697 13.3891 12.3824 13.7215 12.285 14.07C12.2256 14.2826 12.2593 14.6556 12.3483 14.7708C12.4921 14.9568 12.6311 15.0059 13.0075 15.0033C13.7443 14.9983 14.3849 14.692 14.4594 14.309C14.5205 13.9952 14.2391 13.5601 13.8516 13.3691C13.6516 13.2706 13.2263 13.2315 13.0205 13.2927ZM13.8819 13.9456C13.9956 13.7891 13.9459 13.62 13.7526 13.5056C13.3846 13.2878 12.828 13.468 12.828 13.805C12.828 13.9728 13.1182 14.1558 13.3843 14.1558C13.5613 14.1558 13.8037 14.0535 13.8819 13.9456Z" fill="#FF007A"/>
</svg>
