<svg width="86" height="65" viewBox="0 0 86 65" fill="none" xmlns="http://www.w3.org/2000/svg">
<path d="M77.5601 64.8331C77.1 65.1385 76.4794 65.013 76.174 64.5528L71.1977 57.0537C70.8923 56.5935 71.0178 55.9729 71.478 55.6676C71.9382 55.3622 72.5588 55.4877 72.8642 55.9479L77.2875 62.6138L83.9534 58.1904C84.4136 57.885 85.0342 58.0105 85.3396 58.4707C85.6449 58.9309 85.5194 59.5515 85.0593 59.8569L77.5601 64.8331ZM76.0271 63.8017C81.1636 38.4015 71.429 19.2111 56.071 9.6382C40.6877 0.0494764 19.5246 0.0173187 1.59388 13.2586L0.405785 11.6497C18.9751 -2.06317 41.0277 -2.09533 57.129 7.94092C73.2557 17.993 83.2747 38.0525 77.9874 64.1981L76.0271 63.8017Z" fill="#4A595F"/>
</svg>
