<svg width="64" height="44" viewBox="0 0 64 44" fill="none" xmlns="http://www.w3.org/2000/svg">
<rect width="64" height="44" rx="11" fill="#F4F6FA"/>
<g clip-path="url(#clip0_88_510)">
<path d="M45.6109 25.1448C43.8745 32.1091 36.8199 36.3475 29.8539 34.6108C22.8909 32.8746 18.6521 25.8203 20.3893 18.8566C22.1249 11.8914 29.1795 7.65276 36.1433 9.389C43.1087 11.1252 47.3473 18.1802 45.6107 25.1449L45.6108 25.1448H45.6109Z" fill="#F7931A"/>
<path d="M38.7332 20.1476C38.9919 18.4176 37.6747 17.4877 35.8734 16.8673L36.4577 14.5238L35.031 14.1684L34.4622 16.4501C34.0871 16.3566 33.702 16.2685 33.3191 16.1811L33.8921 13.8843L32.4663 13.5288L31.8816 15.8715C31.5713 15.8008 31.2664 15.731 30.9707 15.6574L30.9723 15.6501L29.0049 15.1588L28.6253 16.6824C28.6253 16.6824 29.6838 16.925 29.6615 16.94C30.2393 17.0842 30.3437 17.4666 30.3264 17.7697L29.6608 20.4394C29.7005 20.4495 29.7521 20.4641 29.8091 20.487C29.7615 20.4752 29.7108 20.4623 29.6583 20.4497L28.7253 24.1896C28.6547 24.3651 28.4755 24.6285 28.0716 24.5285C28.0859 24.5492 27.0346 24.2698 27.0346 24.2698L26.3263 25.9027L28.1829 26.3655C28.5283 26.4521 28.8668 26.5427 29.2001 26.6279L28.6097 28.9982L30.0348 29.3537L30.6194 27.0085C31.0087 27.1142 31.3865 27.2117 31.7564 27.3036L31.1737 29.6377L32.6005 29.9931L33.1908 27.6272C35.6236 28.0876 37.4529 27.902 38.2228 25.7018C38.8433 23.9303 38.192 22.9086 36.9121 22.2422C37.8443 22.0273 38.5464 21.4142 38.7337 20.1478L38.7332 20.1475L38.7332 20.1476ZM35.4735 24.718C35.0326 26.4894 32.0497 25.5319 31.0826 25.2917L31.866 22.1514C32.833 22.3928 35.9343 22.8706 35.4735 24.718H35.4735ZM35.9147 20.1219C35.5125 21.7333 33.0298 20.9146 32.2244 20.7139L32.9347 17.8659C33.7401 18.0666 36.3337 18.4412 35.9148 20.1219H35.9147Z" fill="white"/>
</g>
<defs>
<clipPath id="clip0_88_510">
<rect width="26" height="26" fill="white" transform="translate(20 9)"/>
</clipPath>
</defs>
</svg>
