<svg width="24" height="24" viewBox="0 0 24 24" fill="none" xmlns="http://www.w3.org/2000/svg">
<path d="M22.3334 5.15V8.85C22.3334 11.1 21.4334 12 19.1834 12H16.4834C14.2334 12 13.3334 11.1 13.3334 8.85V5.15C13.3334 2.9 14.2334 2 16.4834 2H19.1834C21.4334 2 22.3334 2.9 22.3334 5.15Z" fill="#C0F54D"/>
<path d="M11.3334 15.15V18.85C11.3334 21.1 10.4334 22 8.18337 22H5.48337C3.23337 22 2.33337 21.1 2.33337 18.85V15.15C2.33337 12.9 3.23337 12 5.48337 12H8.18337C10.4334 12 11.3334 12.9 11.3334 15.15Z" fill="#C0F54D"/>
<path d="M15.1133 22C14.8433 22 14.5934 21.85 14.4634 21.62C14.3334 21.38 14.3334 21.1 14.4734 20.86L15.4433 19.24C15.6533 18.88 16.1133 18.77 16.4733 18.98C16.8333 19.19 16.9433 19.65 16.7333 20.01L16.5533 20.31C19.0233 19.67 20.8433 17.43 20.8433 14.77C20.8433 14.36 21.1834 14.02 21.5933 14.02C22.0033 14.02 22.3333 14.36 22.3333 14.78C22.3333 18.76 19.0933 22 15.1133 22Z" fill="#C0F54D"/>
<path d="M3.08337 9.97C2.67337 9.97 2.33337 9.64 2.33337 9.22C2.33337 5.24 5.57337 2 9.55337 2C9.83337 2 10.0734 2.15 10.2134 2.38C10.3434 2.62 10.3434 2.9 10.2034 3.14L9.23337 4.75C9.01337 5.11 8.55337 5.23 8.20337 5.01C7.84337 4.8 7.73337 4.34 7.94337 3.98L8.12337 3.68C5.66337 4.32 3.83337 6.56 3.83337 9.22C3.83337 9.64 3.49337 9.97 3.08337 9.97Z" fill="#C0F54D"/>
</svg>
