<svg width="24" height="24" viewBox="0 0 24 24" fill="none" xmlns="http://www.w3.org/2000/svg">
<path d="M20.25 3H3.75C2.09315 3 0.75 4.34315 0.75 6V18C0.75 19.6569 2.09315 21 3.75 21H20.25C21.9069 21 23.25 19.6569 23.25 18V6C23.25 4.34315 21.9069 3 20.25 3Z" fill="#071B65"/>
<path d="M3.82579 3H3.75004C2.26429 3 1.03879 4.083 0.800293 5.5005L20.1743 21H20.25C21.7358 21 22.9613 19.917 23.1998 18.4995L3.82579 3Z" fill="white"/>
<path d="M16.6875 14.25H14.8125L22.263 20.2102C22.5533 19.9455 22.791 19.6275 22.9598 19.2675L16.6875 14.25Z" fill="#B92932"/>
<path d="M1.04028 4.73176L7.31253 9.75001H9.18753L1.73703 3.78976C1.44678 4.05451 1.20903 4.37176 1.04028 4.73176Z" fill="#B92932"/>
<path d="M3.75004 21H3.82579L23.1998 5.5005C22.9613 4.08225 21.7358 3 20.25 3H20.1743L0.800293 18.4995C1.03879 19.9177 2.26429 21 3.75004 21Z" fill="white"/>
<path d="M14.25 3H9.75V21H14.25V3Z" fill="white"/>
<path d="M23.25 9.75H0.75V14.25H23.25V9.75Z" fill="white"/>
<path d="M13.5 3H10.5V21H13.5V3Z" fill="#B92932"/>
<path d="M23.25 13.5V10.5L0.75 10.5V13.5L23.25 13.5Z" fill="#B92932"/>
<path d="M21.1665 3.1575L14.25 8.6895V9.75H14.8125L22.2698 3.795C21.9555 3.507 21.5813 3.29175 21.1665 3.1575Z" fill="#B92932"/>
<path d="M1.74597 20.2178C2.05647 20.4983 2.42397 20.7098 2.83122 20.8418L9.74997 15.3068V14.2508H9.18747L1.74597 20.2178Z" fill="#B92932"/>
<path opacity="0.15" d="M20.25 3H3.75C2.09325 3 0.75 4.34325 0.75 6V18C0.75 19.6567 2.09325 21 3.75 21H20.25C21.9067 21 23.25 19.6567 23.25 18V6C23.25 4.34325 21.9067 3 20.25 3ZM22.5 18C22.5 19.2405 21.4905 20.25 20.25 20.25H3.75C2.5095 20.25 1.5 19.2405 1.5 18V6C1.5 4.7595 2.5095 3.75 3.75 3.75H20.25C21.4905 3.75 22.5 4.7595 22.5 6V18Z" fill="black"/>
<path opacity="0.2" d="M20.25 3.75H3.75C2.50725 3.75 1.5 4.75725 1.5 6V6.75C1.5 5.50725 2.50725 4.5 3.75 4.5H20.25C21.4928 4.5 22.5 5.50725 22.5 6.75V6C22.5 4.75725 21.4928 3.75 20.25 3.75Z" fill="white"/>
</svg>
