<svg width="33" height="33" viewBox="0 0 33 33" fill="none" xmlns="http://www.w3.org/2000/svg">
<rect x="0.5" y="0.5" width="32" height="32" rx="16" fill="#ECF6FF"/>
<path d="M26.62 16.7396C26.62 15.9921 26.5529 15.2733 26.4283 14.5833H16.5V18.6658H22.1733C21.9242 19.9787 21.1767 21.0904 20.0554 21.8379V24.4925H23.4767C25.47 22.6525 26.62 19.95 26.62 16.7396Z" fill="#4285F4"/>
<path d="M16.4999 27.0417C19.3462 27.0417 21.7324 26.1025 23.4766 24.4925L20.0554 21.8379C19.1162 22.4704 17.9183 22.8538 16.4999 22.8538C13.7591 22.8538 11.4304 21.0042 10.5966 18.5125H7.08911V21.2342C8.82369 24.6746 12.3791 27.0417 16.4999 27.0417Z" fill="#34A853"/>
<path d="M10.5967 18.5029C10.3859 17.8704 10.2613 17.1996 10.2613 16.5C10.2613 15.8004 10.3859 15.1296 10.5967 14.4971V11.7754H7.08921C6.37046 13.1937 5.95837 14.7941 5.95837 16.5C5.95837 18.2058 6.37046 19.8062 7.08921 21.2246L9.82046 19.0971L10.5967 18.5029Z" fill="#FBBC05"/>
<path d="M16.4999 10.1558C18.0524 10.1558 19.4324 10.6925 20.5345 11.7275L23.5533 8.70873C21.7229 7.0029 19.3462 5.95831 16.4999 5.95831C12.3791 5.95831 8.82369 8.3254 7.08911 11.7754L10.5966 14.4971C11.4304 12.0054 13.7591 10.1558 16.4999 10.1558Z" fill="#EA4335"/>
</svg>
