<svg width="152" height="30" viewBox="0 0 152 30" fill="none" xmlns="http://www.w3.org/2000/svg">
<path d="M50.4791 9.40919C51.1342 9.62367 51.693 9.93032 52.1564 10.33C52.619 10.7297 52.9758 11.2181 53.2251 11.7969C53.4744 12.3749 53.5991 13.0278 53.5991 13.7557C53.5991 14.4982 53.4744 15.1658 53.2251 15.7575C52.9758 16.3502 52.6121 16.8566 52.1349 17.2779C51.6578 17.6991 51.0809 18.0273 50.4043 18.2624C49.7277 18.4976 48.9686 18.6156 48.1286 18.6156H46.6112V24.075H43.7474V9.08789H48.2559C49.0829 9.08789 49.824 9.1947 50.4791 9.40919ZM49.1758 15.96C49.5179 15.8454 49.7991 15.6817 50.02 15.4672C50.241 15.2528 50.4078 15.0107 50.5221 14.7394C50.6356 14.468 50.6932 14.1683 50.6932 13.8401C50.6932 13.5266 50.6399 13.2303 50.5333 12.952C50.4267 12.6738 50.2625 12.4309 50.0415 12.2242C49.8206 12.0174 49.536 11.8529 49.1869 11.7315C48.8379 11.61 48.4209 11.5497 47.9369 11.5497H46.6121V16.1314H47.9584C48.4278 16.1314 48.8336 16.0745 49.1758 15.96Z" fill="black"/>
<path d="M60.8644 14.1728C61.0063 14.1806 61.1421 14.1978 61.2702 14.2262V16.6674C61.1129 16.6243 60.9427 16.589 60.7578 16.5606C60.5721 16.5321 60.3873 16.5175 60.2025 16.5175C59.8465 16.5175 59.5396 16.5743 59.2834 16.6889C59.0272 16.8035 58.8166 16.9671 58.6532 17.1816C58.489 17.3961 58.3678 17.6597 58.2896 17.9741C58.2113 18.2885 58.1718 18.6589 58.1718 19.087V24.0752H55.5221V14.2908H58.0437V17.0955L57.809 16.6028C57.852 16.3314 57.9336 16.0498 58.0549 15.7569C58.1761 15.4649 58.3394 15.2004 58.5466 14.9644C58.753 14.7293 59.0169 14.5363 59.3376 14.3864C59.6582 14.2366 60.0391 14.1616 60.481 14.1616C60.5936 14.1616 60.7217 14.1659 60.8644 14.1728Z" fill="black"/>
<path d="M65.255 23.8608C64.6068 23.6179 64.048 23.2725 63.5777 22.8229C63.1074 22.3732 62.7403 21.8418 62.4773 21.2276C62.2133 20.6143 62.0818 19.9286 62.0818 19.1723C62.0818 18.4161 62.2168 17.7235 62.4876 17.0956C62.7584 16.4676 63.1289 15.9362 63.5983 15.5003C64.0686 15.0653 64.6274 14.7259 65.2757 14.483C65.9239 14.2401 66.6254 14.1187 67.3803 14.1187C68.1497 14.1187 68.8582 14.2401 69.5064 14.483C70.1546 14.7259 70.71 15.0713 71.1734 15.521C71.636 15.9706 71.9996 16.5021 72.2636 17.1162C72.5266 17.7304 72.659 18.4152 72.659 19.1715C72.659 19.9424 72.5232 20.6384 72.2532 21.2586C71.9824 21.8797 71.6119 22.4111 71.1425 22.8539C70.6722 23.2966 70.1168 23.6351 69.4755 23.8712C68.8341 24.1072 68.136 24.2243 67.3812 24.2243C66.6117 24.2243 65.9033 24.1029 65.255 23.8608ZM68.418 21.7728C68.724 21.6376 68.988 21.4447 69.2089 21.1949C69.4299 20.9451 69.5967 20.6487 69.711 20.3059C69.8245 19.9631 69.8821 19.5849 69.8821 19.1715C69.8821 18.7718 69.8254 18.404 69.711 18.0689C69.5967 17.7338 69.4333 17.4375 69.2193 17.1808C69.0052 16.9242 68.7455 16.7278 68.4395 16.5925C68.1326 16.4573 67.7801 16.3892 67.382 16.3892C66.9831 16.3892 66.6306 16.4607 66.3245 16.6037C66.0176 16.7467 65.7545 16.9431 65.5336 17.192C65.3126 17.4418 65.145 17.7382 65.0315 18.081C64.9172 18.4238 64.8604 18.7873 64.8604 19.1732C64.8604 19.5591 64.9172 19.9226 65.0315 20.2654C65.145 20.6083 65.3092 20.908 65.5233 21.1647C65.7374 21.4214 66.0004 21.6212 66.3142 21.7642C66.6272 21.9072 66.984 21.9787 67.3829 21.9787C67.7655 21.9761 68.1111 21.9089 68.418 21.7728Z" fill="black"/>
<path d="M73.2576 23.5827L76.9329 18.038L76.9544 19.7935L73.5138 14.7837V14.291H76.2915L78.8561 18.0802H77.6379L80.0529 14.291H82.5744V14.7837L79.2834 19.7504L79.0693 17.9519L82.8728 23.6042L82.8943 24.0754H80.181L77.3387 19.815H78.6635L75.8428 24.0754H73.2576V23.5827Z" fill="black"/>
<path d="M83.2578 14.7827V14.29H85.9075L88.92 21.7194L87.51 24.7592L83.2578 14.7827ZM85.6083 28.8921L90.7581 14.2909H93.1516L93.1301 14.7836L88.0018 29.2134H85.6083V28.8921Z" fill="black"/>
<path d="M101.784 9.40967C102.439 9.62416 102.998 9.93081 103.462 10.3305C103.924 10.7302 104.281 11.2186 104.53 11.7974C104.779 12.3754 104.904 13.0283 104.904 13.7562C104.904 14.4987 104.779 15.1663 104.53 15.758C104.281 16.3506 103.917 16.8571 103.44 17.2783C102.963 17.6996 102.386 18.0277 101.709 18.2629C101.033 18.4981 100.274 18.6161 99.4337 18.6161H97.9163V24.0755H95.0525V9.08838H99.5609C100.388 9.08838 101.129 9.19519 101.784 9.40967ZM100.481 15.9604C100.823 15.8459 101.104 15.6822 101.325 15.4677C101.546 15.2533 101.713 15.0112 101.827 14.7399C101.941 14.4685 101.998 14.1688 101.998 13.8406C101.998 13.5271 101.945 13.2307 101.838 12.9525C101.732 12.6743 101.568 12.4314 101.347 12.2247C101.126 12.0179 100.841 11.8534 100.492 11.7319C100.143 11.6105 99.726 11.5502 99.2419 11.5502H97.9171V16.1319H99.2634C99.7329 16.1319 100.139 16.075 100.481 15.9604Z" fill="black"/>
<path d="M108.27 23.8609C107.722 23.618 107.234 23.2761 106.806 22.8333C106.379 22.3914 106.036 21.8591 105.78 21.238C105.524 20.617 105.396 19.9288 105.396 19.1716C105.396 18.4153 105.524 17.7305 105.78 17.1164C106.036 16.5031 106.371 15.975 106.784 15.5323C107.197 15.0904 107.682 14.7441 108.237 14.4943C108.793 14.2445 109.37 14.1196 109.968 14.1196C110.481 14.1196 110.958 14.1946 111.399 14.3444C111.841 14.4943 112.226 14.6907 112.553 14.9336C112.881 15.1765 113.152 15.4548 113.365 15.7683C113.579 16.0827 113.699 16.4109 113.728 16.7529V19.0433H113.087C113.087 18.672 113.03 18.33 112.916 18.0156C112.802 17.7021 112.638 17.4273 112.424 17.1913C112.21 16.9561 111.954 16.7735 111.655 16.6452C111.356 16.5168 111.028 16.4522 110.672 16.4522C110.345 16.4522 110.031 16.5091 109.732 16.6236C109.432 16.7382 109.168 16.9096 108.941 17.137C108.713 17.3653 108.535 17.6478 108.407 17.9829C108.279 18.3188 108.214 18.7142 108.214 19.1707C108.214 19.5988 108.274 19.9839 108.396 20.3267C108.517 20.6695 108.687 20.9624 108.909 21.2045C109.13 21.4474 109.389 21.6326 109.689 21.7609C109.988 21.8892 110.315 21.9538 110.671 21.9538C111.027 21.9538 111.351 21.8867 111.644 21.7506C111.935 21.6153 112.189 21.4293 112.402 21.1941C112.616 20.959 112.783 20.6695 112.904 20.3267C113.025 19.9839 113.085 19.6135 113.085 19.2138H113.833V21.4835C113.748 21.8686 113.591 22.226 113.363 22.5542C113.135 22.8824 112.851 23.1718 112.509 23.4216C112.166 23.6714 111.782 23.8678 111.355 24.01C110.927 24.1529 110.464 24.2244 109.965 24.2244C109.384 24.2244 108.818 24.103 108.27 23.8609ZM113.238 21.698L113.088 21.3767V17.0948L113.238 16.9449V14.2902H115.738V16.9449V17.0948V24.0746H113.238V21.698Z" fill="black"/>
<path d="M118.259 21.6978V21.3765V17.0946V16.9447V14.29H120.759V16.9447L120.909 17.0946V24.0743H118.259V21.6978ZM124.798 17.7691C124.699 17.4771 124.564 17.2376 124.392 17.0515C124.221 16.8663 124.018 16.7302 123.784 16.645C123.549 16.5597 123.31 16.5166 123.068 16.5166C122.725 16.5166 122.423 16.5881 122.16 16.7311C121.896 16.8741 121.668 17.0627 121.476 17.2988C121.284 17.5339 121.141 17.8121 121.049 18.1334C120.956 18.4547 120.91 18.801 120.91 19.1714H120.397V16.9232C120.482 16.5519 120.622 16.1988 120.814 15.8637C121.007 15.5286 121.253 15.2358 121.552 14.986C121.851 14.7362 122.207 14.5363 122.621 14.3864C123.033 14.2366 123.497 14.1616 124.01 14.1616C124.552 14.1616 125.042 14.2469 125.484 14.4183C125.925 14.5897 126.304 14.843 126.617 15.178C126.93 15.514 127.172 15.9274 127.343 16.4202C127.514 16.9129 127.599 17.4874 127.599 18.1438V18.3582V24.0743H124.95V18.8294C124.948 18.4151 124.898 18.0619 124.798 17.7691Z" fill="black"/>
<path d="M132.267 23.8609C131.718 23.618 131.231 23.276 130.802 22.8332C130.375 22.3914 130.033 21.859 129.777 21.238C129.521 20.6169 129.392 19.9287 129.392 19.1715C129.392 18.4152 129.521 17.7305 129.777 17.1163C130.033 16.503 130.367 15.975 130.781 15.5322C131.194 15.0903 131.678 14.7441 132.234 14.4943C132.789 14.2445 133.366 14.1196 133.964 14.1196C134.478 14.1196 134.955 14.1945 135.396 14.3444C135.837 14.4943 136.222 14.6907 136.55 14.9336C136.877 15.1765 137.148 15.4547 137.361 15.7682C137.575 16.0826 137.696 16.4108 137.725 16.7528V19.0432H137.084C137.084 18.6719 137.027 18.33 136.912 18.0156C136.798 17.702 136.635 17.4272 136.421 17.1912C136.207 16.9561 135.95 16.7735 135.651 16.6451C135.352 16.5168 135.025 16.4522 134.669 16.4522C134.341 16.4522 134.027 16.509 133.728 16.6236C133.429 16.7381 133.165 16.9096 132.937 17.137C132.709 17.3652 132.531 17.6478 132.403 17.9828C132.275 18.3188 132.211 18.7141 132.211 19.1707C132.211 19.5988 132.271 19.9838 132.392 20.3266C132.513 20.6695 132.683 20.9623 132.905 21.2044C133.126 21.4473 133.386 21.6325 133.685 21.7608C133.984 21.8892 134.312 21.9538 134.668 21.9538C135.024 21.9538 135.348 21.8866 135.64 21.7505C135.932 21.6153 136.185 21.4292 136.398 21.194C136.612 20.9589 136.779 20.6695 136.9 20.3266C137.022 19.9838 137.082 19.6134 137.082 19.2137H137.83V21.4835C137.745 21.8685 137.587 22.226 137.36 22.5542C137.132 22.8823 136.847 23.1718 136.505 23.4216C136.163 23.6714 135.779 23.8678 135.351 24.0099C134.924 24.1529 134.461 24.2244 133.962 24.2244C133.381 24.2244 132.814 24.1029 132.267 23.8609ZM137.234 21.698L137.084 21.3767V17.0948V16.9449V9.0874H139.734V16.9449V17.0948V24.0745H137.234V21.698Z" fill="black"/>
<path d="M144.531 23.8609C143.983 23.618 143.495 23.2761 143.067 22.8333C142.64 22.3914 142.298 21.8591 142.042 21.238C141.785 20.617 141.657 19.9288 141.657 19.1716C141.657 18.4153 141.785 17.7305 142.042 17.1164C142.298 16.5031 142.632 15.975 143.046 15.5323C143.458 15.0904 143.943 14.7441 144.499 14.4943C145.054 14.2445 145.631 14.1196 146.229 14.1196C146.743 14.1196 147.22 14.1946 147.661 14.3444C148.102 14.4943 148.487 14.6907 148.815 14.9336C149.142 15.1765 149.413 15.4548 149.626 15.7683C149.84 16.0827 149.961 16.4109 149.99 16.7529V19.0433H149.348C149.348 18.672 149.292 18.33 149.177 18.0156C149.063 17.7021 148.9 17.4273 148.686 17.1913C148.472 16.9561 148.215 16.7735 147.916 16.6452C147.617 16.5168 147.289 16.4522 146.934 16.4522C146.606 16.4522 146.292 16.5091 145.993 16.6236C145.694 16.7382 145.43 16.9096 145.202 17.137C144.974 17.3653 144.796 17.6478 144.668 17.9829C144.54 18.3188 144.476 18.7142 144.476 19.1707C144.476 19.5988 144.536 19.9839 144.657 20.3267C144.778 20.6695 144.948 20.9624 145.17 21.2045C145.391 21.4474 145.651 21.6326 145.95 21.7609C146.249 21.8892 146.577 21.9538 146.933 21.9538C147.289 21.9538 147.613 21.8867 147.905 21.7506C148.196 21.6153 148.45 21.4293 148.663 21.1941C148.877 20.959 149.044 20.6695 149.165 20.3267C149.287 19.9839 149.347 19.6135 149.347 19.2138H150.095V21.4835C150.01 21.8686 149.852 22.226 149.624 22.5542C149.397 22.8824 149.112 23.1718 148.77 23.4216C148.428 23.6714 148.043 23.8678 147.616 24.01C147.189 24.1529 146.725 24.2244 146.227 24.2244C145.646 24.2244 145.08 24.103 144.531 23.8609ZM149.5 21.698L149.35 21.3767V17.0948L149.5 16.9449V14.2902H152V16.9449V17.0948V24.0746H149.5V21.698Z" fill="black"/>
<path d="M35.4844 9.6488C35.2403 8.85719 34.9643 8.22408 34.7528 7.7865C35.0133 7.4497 35.3168 6.99059 35.5567 6.42983C35.9238 5.5719 35.9702 4.82164 35.9796 4.46331C35.9934 3.97491 36.014 3.21259 35.616 2.34863C35.4638 2.01786 34.9772 1.08068 33.8888 0.488055C33.121 0.0702878 32.4212 0.0229124 32.1358 0.00654624C29.9787 -0.114908 28.3882 1.48984 28.0762 1.81716C28.0805 1.81888 28.0848 1.82061 28.0891 1.82233C27.5767 1.67762 27.0952 1.582 26.6499 1.52171C26.3739 1.48467 25.5623 1.39595 24.4249 1.4571C24.0578 1.47692 22.6564 1.5665 20.863 2.08849C20.5664 2.17463 20.2999 2.26163 20.0678 2.34174C20.048 2.34691 20.0282 2.35207 20.0085 2.35724C19.8494 2.16688 19.6147 1.91536 19.2949 1.66384C18.2219 0.821409 17.0862 0.683588 16.7991 0.656024C16.4131 0.618123 15.2722 0.555244 14.0884 1.19955C12.2064 2.22373 11.7439 4.20576 11.6751 4.5236C7.78312 5.53572 3.89199 6.54698 0 7.55909C4.04588 12.7463 7.43063 16.874 9.92385 19.8501C10.8455 20.9501 12.1927 22.5419 14.3067 24.2862C15.9402 25.6342 18.3372 27.5146 21.9429 28.7223C22.5515 28.9264 25.8202 29.9876 28.984 29.3864C30.4275 29.1116 31.4145 28.5741 31.6346 28.4509C32.0868 28.1977 32.9371 27.7127 33.7134 26.7755C34.0882 26.3233 34.4863 25.7161 34.8998 24.6256C35.3116 23.5402 35.5773 22.3972 35.8533 18.7656C35.9143 17.9576 35.99 16.8559 36.0527 15.538C36.1284 14.612 36.1172 13.8308 36.0862 13.2519C36.045 12.5034 35.9693 11.2191 35.4844 9.6488ZM15.2963 1.62077C15.7537 1.42265 16.4217 1.14184 17.2651 1.26932C17.9494 1.37269 18.4524 1.70174 18.6372 1.8318C18.945 2.04887 19.1771 2.29436 19.3542 2.52693C19.2536 2.55277 19.1539 2.57948 19.0533 2.60532C18.841 2.63719 18.6295 2.66906 18.4171 2.70093C18.0483 2.51574 17.7723 2.12123 17.8127 1.72241C17.8127 1.72069 17.8119 1.71982 17.8119 1.7181C17.7113 1.67073 17.6193 1.59665 17.5127 1.55961C17.0493 1.39853 16.7011 1.67417 16.3022 1.89554C15.7881 2.18066 15.3032 2.29695 14.8037 2.41496C14.8467 2.52521 14.8699 2.64236 14.8673 2.76037C14.8595 3.08683 14.7822 3.44085 14.6334 3.75353C13.8958 3.94562 13.1581 4.13685 12.4205 4.32893C12.785 3.69324 13.686 2.31934 15.2963 1.62077ZM29.3116 18.2651C29.2996 18.4012 29.346 18.5606 29.4526 18.7329C29.4526 18.7337 29.4534 18.7337 29.4534 18.7346C29.4534 18.7337 29.4526 18.7337 29.4526 18.7337C29.346 18.5606 29.2996 18.4012 29.3116 18.2651ZM31.6449 2.42357C31.2511 3.11095 30.4886 3.3797 29.7982 2.93953C29.5678 2.79224 29.4337 2.5967 29.3752 2.38825C29.1465 2.26335 28.917 2.14448 28.6831 2.0394C28.6926 2.04284 28.702 2.04629 28.7115 2.04973C30.1541 0.694786 31.9914 0.219306 33.2595 0.863616C34.0874 1.28483 34.6204 2.15654 34.7537 2.38739C34.8904 2.62427 35.279 3.34869 35.3254 4.32893C35.3847 5.56501 34.8697 6.54698 34.4519 7.1353C34.3066 6.95785 34.1905 6.73562 34.1269 6.45567C34.0418 6.087 34.1819 5.65373 34.4682 5.40479C33.74 5.20409 33.0488 4.84576 32.6147 4.20662C32.2329 3.64586 31.9879 3.01189 31.6449 2.42357ZM33.5526 20.1352C33.2251 20.435 32.8167 20.4522 32.7204 20.4677C33.1675 20.3962 33.4899 20.186 33.5526 20.1352C33.5526 20.1343 33.5535 20.1343 33.5535 20.1343C33.5526 20.1343 33.5526 20.1343 33.5526 20.1352ZM32.5424 19.4065C32.9001 19.0783 33.2672 18.7587 33.618 18.4228C33.2672 18.7579 32.901 19.0774 32.5424 19.4065Z" fill="url(#paint0_linear_367_436)"/>
<path d="M27.7735 21.6013C27.66 21.591 27.5551 21.579 27.4597 21.5669C27.5646 21.5807 27.6695 21.5919 27.7735 21.6013Z" fill="url(#paint1_linear_367_436)"/>
<path d="M30.5255 21.2578C30.3948 21.3043 30.2641 21.3439 30.1326 21.381C30.2641 21.3439 30.3956 21.3043 30.5255 21.2578Z" fill="url(#paint2_linear_367_436)"/>
<path d="M29.6173 18.9486L29.615 18.9463C29.615 18.9486 29.615 18.9486 29.6173 18.9486Z" fill="url(#paint3_linear_367_436)"/>
<path d="M29.6331 21.5039C29.5386 21.5229 29.444 21.5401 29.3494 21.5547C29.3056 21.5616 29.2634 21.5668 29.2205 21.572C29.358 21.553 29.4956 21.5315 29.6331 21.5039Z" fill="url(#paint4_linear_367_436)"/>
<path d="M30.0355 21.4082C29.9048 21.4435 29.7733 21.4754 29.6417 21.5021C29.7733 21.4754 29.9039 21.4427 30.0355 21.4082Z" fill="url(#paint5_linear_367_436)"/>
<path d="M28.353 21.6273C28.4751 21.6273 28.5972 21.6255 28.7184 21.6187C28.592 21.6255 28.4708 21.6281 28.353 21.6273Z" fill="url(#paint6_linear_367_436)"/>
<path d="M28.7872 21.6143C28.9171 21.6057 29.046 21.5945 29.175 21.5781C29.0426 21.5945 28.9136 21.6065 28.7872 21.6143Z" fill="url(#paint7_linear_367_436)"/>
<path d="M32.3878 20.4385C32.4437 20.4548 32.5013 20.466 32.558 20.4721C32.5022 20.466 32.4446 20.4548 32.3878 20.4385Z" fill="url(#paint8_linear_367_436)"/>
<path d="M28.2205 21.6256C28.1139 21.623 28.0124 21.6187 27.9161 21.6118C28.0176 21.6187 28.119 21.6239 28.2205 21.6256Z" fill="url(#paint9_linear_367_436)"/>
<path d="M35.4785 15.2373C34.1287 17.3839 33.6808 18.5527 33.5578 19.235C33.526 19.4098 33.434 20.0076 32.9956 20.2746C32.6844 20.4641 32.2992 20.428 32.153 20.4142C31.9949 20.3995 31.8143 20.3797 31.7464 20.2514C31.6836 20.1325 31.7516 19.9835 31.7713 19.9404C31.8599 19.7466 32.0378 19.6527 32.0929 19.6226C32.5855 19.3581 33.1839 19.0377 33.4633 18.5596C33.6249 18.284 33.6395 18.0239 33.6455 17.8981C33.6533 17.7284 33.6636 17.5243 33.5372 17.4037C33.3928 17.265 33.1521 17.3055 32.9939 17.3322C32.5296 17.4097 32.0568 17.445 31.5985 17.5527C31.1497 17.6586 30.4284 17.8025 29.4234 18.0686C29.2953 18.1031 29.0666 18.1668 28.9325 18.3701C28.807 18.5605 28.7906 18.831 28.8938 19.0411C28.9763 19.2108 29.113 19.2909 29.3116 19.409C29.5498 19.5502 29.763 19.6114 29.8593 19.6355C30.2866 19.744 30.5694 19.682 31.0947 19.8095C31.1712 19.8284 31.2985 19.862 31.3647 19.9706C31.4171 20.0576 31.4171 20.1747 31.3716 20.3229C31.1755 20.9612 30.664 21.2351 30.0966 21.4332C29.5102 21.6373 29.0374 21.7149 28.9325 21.7235C27.7495 21.8131 26.815 21.3987 26.3232 21.2101C24.9133 20.6683 24.743 21.0542 22.4166 20.6183C17.7844 19.7501 16.1174 17.7801 15.8148 17.2271C15.7254 17.0634 15.5207 16.6706 15.6678 16.3347C15.7314 16.19 15.8767 16.0616 16.1578 15.9626C15.7976 15.6835 15.5087 15.4328 15.1923 15.2235C15.1021 15.1641 15.0436 15.1012 15.0083 15.0289C14.9473 14.9005 14.9688 14.7747 14.9722 14.7455C15.0135 14.3871 13.5201 13.6076 13.1126 13.3052C12.5848 12.9133 12.0956 11.9977 12.3913 9.64697C11.9959 10.3559 11.4551 11.4154 10.9539 12.7617C10.5584 13.8238 10.3211 14.7058 10.2669 14.941C9.6359 17.6586 12.9467 21.8432 16.1681 24.4609C18.1747 26.0915 22.4587 29.5723 27.894 28.903C29.1578 28.7471 31.4541 28.4646 33.1022 26.7057C34.8079 24.8856 35.0521 22.3032 35.3641 18.9989C35.5146 17.4433 35.5103 16.1426 35.4785 15.2373Z" fill="black"/>
<path d="M20.2817 4.88784C20.2981 4.80515 20.2448 4.58636 20.1906 4.3848C20.1846 4.42442 20.1812 4.46404 20.1734 4.50367C20.1098 4.2375 20.0745 3.99804 19.9954 3.77322C19.9697 3.69914 19.9421 3.62765 19.9138 3.55615C19.8613 3.44676 19.8063 3.33736 19.7547 3.21849C19.7298 3.16078 19.704 3.10307 19.6765 3.04536C19.6344 2.95491 19.3266 2.33214 18.6328 1.82823C18.4617 1.70419 17.945 1.35361 17.1919 1.2201C16.0734 1.02198 15.1792 1.43458 14.8113 1.6103C13.1477 2.40621 12.5304 4.03766 12.3894 4.44165C11.9278 6.58389 13.4022 8.26185 13.5552 8.42982C13.7719 8.58831 13.9516 8.7313 14.1424 8.85792C14.7227 9.24382 15.3409 9.49276 16.0562 9.32824C16.6193 9.19817 16.6064 9.19472 16.6305 8.61846C16.6554 8.03962 16.7474 7.34018 16.9726 6.99477C17.2804 6.52359 17.9166 6.36079 19.189 6.03692C19.3971 5.98437 19.5707 5.94647 19.692 5.92149C19.692 5.92149 20.0187 5.76731 20.2869 5.3237C20.2551 5.19277 20.2508 5.04633 20.2817 4.88784Z" fill="black"/>
<path d="M34.2919 7.38844C34.647 6.90951 35.4594 5.7992 35.4603 4.28748C35.4603 3.32618 35.1052 2.61555 35.0055 2.42691C34.8336 2.10217 34.3994 1.30626 33.4537 0.846281C32.4409 0.353574 31.4849 0.55686 31.0533 0.649027C29.8712 0.900549 29.1293 1.59654 28.8499 1.89113C28.5859 2.16849 28.4054 2.43552 28.2885 2.63019C29.0975 2.98508 29.6202 3.41146 29.9374 3.71467C31.4376 5.15316 31.938 7.34881 32.7814 7.26784C32.9473 7.25148 33.1442 7.14467 33.3952 7.24373C33.6772 7.35484 33.8251 7.64599 33.9042 7.85875C34.0039 7.75108 34.1415 7.59172 34.2919 7.38844Z" fill="black"/>
<path d="M35.4148 16.1686C35.6521 15.0712 35.6185 14.1746 35.5842 13.3855C35.5842 13.3855 35.5635 12.8084 35.4947 12.2873C35.1895 9.97534 34.2989 8.15009 33.5715 6.96483C33.3059 6.57549 31.834 4.45995 29.8042 3.31518C28.7949 2.74581 27.7503 2.44433 27.7503 2.44433C27.6196 2.40643 27.0574 2.24794 26.2871 2.14543C25.9535 2.1015 25.1316 2.01364 24.0638 2.07911C22.4466 2.17816 21.249 2.60713 20.7805 2.78543C20.3515 2.9491 20.005 3.1119 19.7652 3.23249C19.8847 3.58307 20.005 3.93365 20.1245 4.28423C19.9199 4.39965 19.7161 4.51422 19.5115 4.62964C18.8229 5.10426 17.958 5.79939 17.1069 6.77964C16.3065 7.70131 15.7597 8.598 15.39 9.31381C14.8088 9.17426 14.4245 9.0106 14.1692 8.87451C14.1606 8.8702 14.1528 8.86589 14.1417 8.85986C13.9448 8.75305 13.6499 8.55752 13.3679 8.2078C13.0189 8.55924 12.503 9.17943 12.2107 10.0787C11.7998 11.3432 12.0697 12.4311 12.2915 13.2779C12.4128 13.7396 12.9286 15.5588 14.618 17.4219C16.8575 19.8924 20.0471 21.2146 22.1561 21.0001C22.3031 20.9855 22.4423 20.9631 22.7028 20.9493C23.0889 20.9295 23.413 20.9407 23.7087 20.9751C24.1781 21.0294 24.4825 21.1259 25.2038 21.3171C25.8985 21.5014 26.2458 21.5936 26.5433 21.6479C27.7348 21.8658 28.6298 21.7676 28.9367 21.7202C29.3262 21.6608 29.7131 21.5652 30.0974 21.4308C30.6648 21.2327 31.1755 20.9596 31.3723 20.3205C31.4583 20.0414 31.3818 19.8717 31.0947 19.808C30.6493 19.708 30.1171 19.5926 29.8609 19.5358C29.6142 19.4815 29.5067 19.4436 29.3967 19.385C29.2677 19.317 29.0915 19.2231 28.9789 19.0232C28.9703 19.0077 28.776 18.6511 28.9333 18.3695C29.0476 18.1645 29.2909 18.1007 29.4242 18.068C30.3544 17.8406 30.8651 17.8121 31.4411 17.6821C31.9656 17.5641 32.4994 17.4848 33.0222 17.3599C33.1391 17.3315 33.3867 17.2721 33.5371 17.4039C33.685 17.5339 33.6566 17.7898 33.6455 17.8983C33.6266 18.0766 33.5586 18.2876 33.3669 18.5374C33.0041 19.0112 32.4307 19.3204 32.0997 19.4996C32.0885 19.5056 31.9363 19.5874 31.7721 19.7373C31.7033 19.8002 31.6681 19.8329 31.6406 19.8846C31.5658 20.025 31.5838 20.2137 31.6724 20.3489C31.7627 20.485 31.9002 20.5281 32.0171 20.5642C32.2407 20.6332 32.4315 20.5978 32.5442 20.5754C32.6121 20.5617 32.8425 20.5108 33.0909 20.336C33.0909 20.336 33.5647 19.9759 33.7959 19.2705C33.8123 19.2222 33.8226 19.1843 33.8295 19.1611C33.8415 19.118 33.8724 19.006 33.9429 18.8691C34.0384 18.6847 34.1484 18.5676 34.1905 18.5219C34.396 18.2988 34.5585 18.0387 34.7494 17.8035C34.9591 17.5468 35.2128 17.0826 35.4148 16.1686ZM23.3399 18.397C22.9986 18.3557 22.653 18.3333 22.3151 18.2704C21.0694 18.0378 20.1108 17.4461 19.815 16.1161C19.6104 15.1961 19.901 14.3658 20.5019 13.6939C21.1295 12.9927 21.813 12.3269 22.5481 11.742C23.4577 11.0185 24.5169 10.9168 25.5838 11.3889C26.7694 11.9134 27.6093 13.4846 27.4193 14.7543C27.4013 14.8749 27.3368 14.9989 27.2628 15.098C26.704 15.8456 26.14 16.5899 25.5718 17.3298C25.0104 18.0619 24.2736 18.4263 23.3399 18.397Z" fill="white"/>
<path d="M32.8191 21.0234C32.017 21.4188 30.8847 21.8659 29.4782 22.095C28.3907 22.2716 27.4338 22.2699 26.679 22.2113C26.777 22.3181 28.1336 23.7342 30.0809 23.3457C32.0024 22.9624 32.7607 21.1681 32.8191 21.0234Z" fill="white"/>
<path d="M23.34 18.3969C24.2737 18.4262 25.0105 18.0618 25.5727 17.3305C26.141 16.5906 26.705 15.8464 27.2638 15.0987C27.3378 14.9996 27.4022 14.8747 27.4203 14.755C27.6103 13.4853 26.7703 11.9133 25.5848 11.3896C24.517 10.9176 23.4578 11.0192 22.5491 11.7428C21.814 12.3276 21.1305 12.9943 20.5029 13.6946C19.902 14.3656 19.6114 15.1969 19.816 16.1168C20.1117 17.4468 21.0703 18.0377 22.3161 18.2711C22.6531 18.3331 22.9987 18.3555 23.34 18.3969Z" fill="black"/>
<path d="M33.3592 16.1761C33.4177 16.1692 33.4925 16.1235 33.6438 16.0297C33.6438 16.0297 33.9748 15.8255 34.2052 15.5628C34.5061 15.22 34.6411 14.6816 34.6385 14.0959C34.6351 13.306 34.5534 12.517 34.4855 11.7288C34.4709 11.5565 34.3969 11.3774 34.3075 11.2258C34.0573 10.8028 33.7324 10.4721 33.1907 10.4712C32.6629 10.4703 32.2631 10.7365 32.0404 11.1741C31.8538 11.5402 31.7773 11.9674 31.6836 12.3748C31.5736 12.8538 31.565 13.2707 31.6957 13.7763C31.7636 14.0382 31.902 14.2845 32.178 14.7669C32.9878 16.183 33.2767 16.1847 33.3592 16.1761Z" fill="black"/>
<path d="M23.9047 13.65C23.7731 13.8308 23.7912 14.035 23.7972 14.0927C23.8264 14.3821 24.0328 14.5535 24.0775 14.5889C24.3096 14.7723 24.5873 14.7568 24.8856 14.7396C25.012 14.7327 24.9251 14.7258 25.5209 14.6104C25.815 14.5535 25.9508 14.5329 26.0032 14.4261C26.0505 14.3304 26.0041 14.2193 25.9732 14.1461C25.8373 13.8274 25.5218 13.6749 25.3051 13.5741C25.0636 13.4622 24.7678 13.3235 24.3999 13.3907C24.2692 13.4148 24.0465 13.4561 23.9047 13.65Z" fill="white"/>
<path d="M32.4151 13.283C32.3472 13.2202 32.3842 13.0789 32.4039 13.0022C32.4478 12.8343 32.5209 12.7653 32.673 12.5491C32.906 12.2184 32.9052 12.14 33.029 12.0961C33.1536 12.0513 33.2963 12.0806 33.3952 12.1503C33.5861 12.2838 33.6127 12.5629 33.5353 12.7438C33.4855 12.861 33.3763 12.9299 33.1579 13.0677C33.1115 13.097 32.9542 13.1943 32.7272 13.2615C32.5759 13.3072 32.4727 13.3364 32.4151 13.283Z" fill="white"/>
<defs>
<linearGradient id="paint0_linear_367_436" x1="0.000326697" y1="14.7851" x2="36.1086" y2="14.7851" gradientUnits="userSpaceOnUse">
<stop offset="6.50684e-07" stop-color="#C0F54D"/>
<stop offset="0.0116" stop-color="#BEF34C"/>
<stop offset="0.182" stop-color="#A0D444"/>
<stop offset="0.3604" stop-color="#89BC3D"/>
<stop offset="0.5484" stop-color="#79AA38"/>
<stop offset="0.752" stop-color="#6FA035"/>
<stop offset="1" stop-color="#6C9D34"/>
</linearGradient>
<linearGradient id="paint1_linear_367_436" x1="10.3995" y1="21.5841" x2="36.3939" y2="21.5841" gradientUnits="userSpaceOnUse">
<stop offset="6.50684e-07" stop-color="#C0F54D"/>
<stop offset="0.0116" stop-color="#BEF34C"/>
<stop offset="0.182" stop-color="#A0D444"/>
<stop offset="0.3604" stop-color="#89BC3D"/>
<stop offset="0.5484" stop-color="#79AA38"/>
<stop offset="0.752" stop-color="#6FA035"/>
<stop offset="1" stop-color="#6C9D34"/>
</linearGradient>
<linearGradient id="paint2_linear_367_436" x1="10.3994" y1="21.3196" x2="36.3939" y2="21.3196" gradientUnits="userSpaceOnUse">
<stop offset="6.50684e-07" stop-color="#C0F54D"/>
<stop offset="0.0116" stop-color="#BEF34C"/>
<stop offset="0.182" stop-color="#A0D444"/>
<stop offset="0.3604" stop-color="#89BC3D"/>
<stop offset="0.5484" stop-color="#79AA38"/>
<stop offset="0.752" stop-color="#6FA035"/>
<stop offset="1" stop-color="#6C9D34"/>
</linearGradient>
<linearGradient id="paint3_linear_367_436" x1="20.2152" y1="18.9478" x2="39.0129" y2="18.9478" gradientUnits="userSpaceOnUse">
<stop offset="6.50684e-07" stop-color="#C0F54D"/>
<stop offset="0.0116" stop-color="#BEF34C"/>
<stop offset="0.182" stop-color="#A0D444"/>
<stop offset="0.3604" stop-color="#89BC3D"/>
<stop offset="0.5484" stop-color="#79AA38"/>
<stop offset="0.752" stop-color="#6FA035"/>
<stop offset="1" stop-color="#6C9D34"/>
</linearGradient>
<linearGradient id="paint4_linear_367_436" x1="10.3994" y1="21.5376" x2="36.3939" y2="21.5376" gradientUnits="userSpaceOnUse">
<stop offset="6.50684e-07" stop-color="#C0F54D"/>
<stop offset="0.0116" stop-color="#BEF34C"/>
<stop offset="0.182" stop-color="#A0D444"/>
<stop offset="0.3604" stop-color="#89BC3D"/>
<stop offset="0.5484" stop-color="#79AA38"/>
<stop offset="0.752" stop-color="#6FA035"/>
<stop offset="1" stop-color="#6C9D34"/>
</linearGradient>
<linearGradient id="paint5_linear_367_436" x1="10.3995" y1="21.455" x2="36.3939" y2="21.455" gradientUnits="userSpaceOnUse">
<stop offset="6.50684e-07" stop-color="#C0F54D"/>
<stop offset="0.0116" stop-color="#BEF34C"/>
<stop offset="0.182" stop-color="#A0D444"/>
<stop offset="0.3604" stop-color="#89BC3D"/>
<stop offset="0.5484" stop-color="#79AA38"/>
<stop offset="0.752" stop-color="#6FA035"/>
<stop offset="1" stop-color="#6C9D34"/>
</linearGradient>
<linearGradient id="paint6_linear_367_436" x1="10.3995" y1="21.6232" x2="36.3939" y2="21.6232" gradientUnits="userSpaceOnUse">
<stop offset="6.50684e-07" stop-color="#C0F54D"/>
<stop offset="0.0116" stop-color="#BEF34C"/>
<stop offset="0.182" stop-color="#A0D444"/>
<stop offset="0.3604" stop-color="#89BC3D"/>
<stop offset="0.5484" stop-color="#79AA38"/>
<stop offset="0.752" stop-color="#6FA035"/>
<stop offset="1" stop-color="#6C9D34"/>
</linearGradient>
<linearGradient id="paint7_linear_367_436" x1="10.3996" y1="21.5961" x2="36.394" y2="21.5961" gradientUnits="userSpaceOnUse">
<stop offset="6.50684e-07" stop-color="#C0F54D"/>
<stop offset="0.0116" stop-color="#BEF34C"/>
<stop offset="0.182" stop-color="#A0D444"/>
<stop offset="0.3604" stop-color="#89BC3D"/>
<stop offset="0.5484" stop-color="#79AA38"/>
<stop offset="0.752" stop-color="#6FA035"/>
<stop offset="1" stop-color="#6C9D34"/>
</linearGradient>
<linearGradient id="paint8_linear_367_436" x1="10.3998" y1="20.4551" x2="36.394" y2="20.4551" gradientUnits="userSpaceOnUse">
<stop offset="6.50684e-07" stop-color="#C0F54D"/>
<stop offset="0.0116" stop-color="#BEF34C"/>
<stop offset="0.182" stop-color="#A0D444"/>
<stop offset="0.3604" stop-color="#89BC3D"/>
<stop offset="0.5484" stop-color="#79AA38"/>
<stop offset="0.752" stop-color="#6FA035"/>
<stop offset="1" stop-color="#6C9D34"/>
</linearGradient>
<linearGradient id="paint9_linear_367_436" x1="10.3993" y1="21.619" x2="36.3938" y2="21.619" gradientUnits="userSpaceOnUse">
<stop offset="6.50684e-07" stop-color="#C0F54D"/>
<stop offset="0.0116" stop-color="#BEF34C"/>
<stop offset="0.182" stop-color="#A0D444"/>
<stop offset="0.3604" stop-color="#89BC3D"/>
<stop offset="0.5484" stop-color="#79AA38"/>
<stop offset="0.752" stop-color="#6FA035"/>
<stop offset="1" stop-color="#6C9D34"/>
</linearGradient>
</defs>
</svg>
