<svg width="64" height="44" viewBox="0 0 64 44" fill="none" xmlns="http://www.w3.org/2000/svg">
<rect width="64" height="44" rx="11" fill="#F4F6FA"/>
<g clip-path="url(#clip0_88_505)">
<path d="M37.69 11.7808H26.314V32.219H37.69V11.7808Z" fill="#FF5A00"/>
<path d="M27.0712 22C27.0712 17.8476 29.0233 14.1621 32.0188 11.7809C29.8142 10.0476 27.0333 9 24 9C16.8142 9 11 14.8142 11 22C11 29.1858 16.8142 35 24 35C27.0333 35 29.8142 33.9524 32.0188 32.2191C29.0191 29.8715 27.0712 26.1524 27.0712 22Z" fill="#EB001B"/>
<path d="M53.0376 22C53.0376 29.1858 47.2233 35 40.0376 35C37.0042 35 34.2233 33.9524 32.0188 32.2191C35.0521 29.8337 36.9664 26.1524 36.9664 22C36.9664 17.8476 35.0143 14.1621 32.0188 11.7809C34.2191 10.0476 37 9 40.0334 9C47.2233 9 53.0376 14.8521 53.0376 22Z" fill="#F79E1B"/>
</g>
<defs>
<clipPath id="clip0_88_505">
<rect width="42.0375" height="26" fill="white" transform="translate(11 9)"/>
</clipPath>
</defs>
</svg>
