<svg width="32" height="32" viewBox="0 0 32 32" fill="none" xmlns="http://www.w3.org/2000/svg">
<path opacity="0.4" d="M29.3333 9.90666V17.9067C29.3333 19.9067 28.6666 21.5733 27.4933 22.7467C26.3333 23.9067 24.6667 24.5733 22.6667 24.5733V27.4133C22.6667 28.48 21.48 29.12 20.6 28.5334L14.6667 24.5733H11.84C11.9467 24.1733 12 23.76 12 23.3333C12 21.9733 11.48 20.72 10.6267 19.7734C9.66666 18.68 8.23999 18 6.66666 18C5.17332 18 3.81333 18.6134 2.84 19.6134C2.72 19.08 2.66666 18.5067 2.66666 17.9067V9.90666C2.66666 5.90666 5.33332 3.23999 9.33332 3.23999H22.6667C26.6667 3.23999 29.3333 5.90666 29.3333 9.90666Z" fill="#292D32"/>
<path d="M20.6667 15H11.3333C10.7867 15 10.3333 14.5467 10.3333 14C10.3333 13.4533 10.7867 13 11.3333 13H20.6667C21.2133 13 21.6667 13.4533 21.6667 14C21.6667 14.5467 21.2133 15 20.6667 15Z" fill="#292D32"/>
<path d="M6.66668 18C5.41334 18 4.25334 18.44 3.33334 19.1733C2.10668 20.1467 1.33334 21.6533 1.33334 23.3333C1.33334 26.28 3.72001 28.6667 6.66668 28.6667C8.01334 28.6667 9.24003 28.16 10.1867 27.3333C11.2934 26.36 12 24.9333 12 23.3333C12 20.3867 9.61334 18 6.66668 18ZM8.00001 23.6667C8.00001 24.0133 7.81336 24.3467 7.52003 24.52L5.85336 25.52C5.69336 25.6134 5.52001 25.6667 5.33334 25.6667C5.00001 25.6667 4.66666 25.4934 4.47999 25.1867C4.19999 24.7067 4.34667 24.0933 4.82667 23.8133L6.01336 23.1067V21.6667C6.01336 21.12 6.46669 20.6667 7.01336 20.6667C7.56002 20.6667 8.01336 21.12 8.01336 21.6667V23.6667H8.00001Z" fill="#292D32"/>
</svg>
