<svg width="32" height="32" viewBox="0 0 32 32" fill="none" xmlns="http://www.w3.org/2000/svg">
<rect x="0.5" y="0.5" width="31" height="31" rx="15.5" fill="white"/>
<rect x="0.5" y="0.5" width="31" height="31" rx="15.5" stroke="#F0F0F0"/>
<path d="M24.125 12.0625V14.9688C23.9688 14.9688 23.7813 15 23.5938 15C22.1875 15 20.875 14.4687 19.875 13.625V19.8125C19.875 21.0625 19.4688 22.25 18.75 23.1875C17.75 24.5313 16.125 25.4375 14.2812 25.4375C12.2812 25.4375 10.5312 24.375 9.5625 22.8125C10.5625 23.75 11.9063 24.3438 13.375 24.3438C15.1875 24.3438 16.8125 23.4688 17.8125 22.0938C18.5 21.1562 18.9375 20 18.9375 18.7188V12.5C19.9375 13.375 21.2188 13.875 22.6562 13.875C22.8438 13.875 23 13.875 23.1875 13.8438V11.9688C23.4687 12.0312 23.7187 12.0625 24 12.0625H24.125Z" fill="#FF004F"/>
<path d="M15.0625 14.2187V17.4375C14.8438 17.375 14.5937 17.3437 14.375 17.3437C13 17.3437 11.875 18.5 11.875 19.9062C11.875 20.2188 11.9375 20.5 12.0312 20.7812C11.4062 20.3125 10.9688 19.5625 10.9688 18.7188C10.9688 17.3125 12.0938 16.1562 13.4688 16.1562C13.7188 16.1562 13.9375 16.1875 14.1563 16.25V14.1875C14.2188 14.1875 14.2813 14.1875 14.3438 14.1875C14.5938 14.1875 14.8438 14.1875 15.0625 14.2187Z" fill="#FF004F"/>
<path d="M20.3438 9.75C19.7813 9.25 19.375 8.5625 19.1562 7.84375H19.9063C19.9063 8 19.9063 8.125 19.9063 8.28125C19.9688 8.78125 20.125 9.28125 20.3438 9.75Z" fill="#FF004F"/>
<path d="M23.2188 12V13.875C23.0625 13.9063 22.875 13.9062 22.6875 13.9062C21.2813 13.9062 19.9688 13.375 18.9688 12.5312V18.7188C18.9688 19.9688 18.5625 21.1562 17.8438 22.0938C16.8125 23.4688 15.2188 24.3438 13.4062 24.3438C11.9375 24.3438 10.5938 23.75 9.59375 22.8125C9.0625 21.9375 8.75 20.9375 8.75 19.8437C8.75 16.8125 11.1562 14.3438 14.1562 14.25V16.3125C13.9375 16.25 13.6875 16.2188 13.4688 16.2188C12.0937 16.2188 10.9687 17.375 10.9687 18.7812C10.9687 19.625 11.375 20.4062 12.0312 20.8438C12.375 21.8125 13.3125 22.5312 14.375 22.5312C15.75 22.5312 16.875 21.375 16.875 19.9688V7.84375H19.1562C19.375 8.59375 19.7813 9.25 20.3438 9.75C20.9063 10.875 21.9688 11.7188 23.2188 12Z" fill="black"/>
<path d="M14.1562 13.125V14.1875C11.1562 14.2813 8.75 16.75 8.75 19.7812C8.75 20.875 9.0625 21.875 9.59375 22.75C8.53125 21.7187 7.875 20.2812 7.875 18.6562C7.875 15.5625 10.375 13.0625 13.4375 13.0625C13.6875 13.0625 13.9375 13.0937 14.1562 13.125Z" fill="#00F7EF"/>
<path d="M19.1562 7.84375H16.875V19.9062C16.875 21.3125 15.75 22.4688 14.375 22.4688C13.2812 22.4688 12.375 21.7812 12.0312 20.7812C12.4375 21.0625 12.9375 21.25 13.4688 21.25C14.8438 21.25 15.9688 20.125 15.9688 18.7188V6.625H19V6.6875C19 6.8125 19 6.9375 19.0313 7.0625C19.0313 7.3125 19.0937 7.59375 19.1562 7.84375Z" fill="#00F7EF"/>
<path d="M23.2187 10.8437V11.9688C21.9687 11.7187 20.9062 10.875 20.3125 9.75C21.0938 10.4687 22.0937 10.875 23.2187 10.8437Z" fill="#00F7EF"/>
</svg>
