<svg width="32" height="32" viewBox="0 0 32 32" fill="none" xmlns="http://www.w3.org/2000/svg">
<rect x="0.5" y="0.5" width="31" height="31" rx="15.5" fill="white"/>
<rect x="0.5" y="0.5" width="31" height="31" rx="15.5" stroke="#F0F0F0"/>
<g clip-path="url(#clip0_91_1045)">
<path d="M19.827 16.2426C18.691 16.2723 17.9852 16.436 17.9852 17.0335C17.9852 17.4203 18.3714 17.8396 19.3518 17.8396C20.6662 17.8396 21.3678 17.2675 21.3678 16.3292L21.3679 16.226C20.9071 16.226 20.3388 16.2292 19.827 16.2426ZM22.6207 17.4823C22.6207 17.7734 22.6313 18.0608 22.6631 18.3196H21.4977C21.4667 18.1065 21.4553 17.8948 21.4553 17.6894C20.8253 18.3078 20.0759 18.4856 19.0363 18.4856C17.4944 18.4856 16.6688 17.8349 16.6688 17.0821C16.6688 15.9919 17.7917 15.6075 19.741 15.5719C20.2741 15.5622 20.8729 15.5607 21.3679 15.5607L21.3678 15.4542C21.3678 14.7244 20.7817 14.4243 19.7661 14.4243C19.0122 14.4243 18.4565 14.6734 18.3992 15.1039H17.0829C17.2222 14.0305 18.6346 13.759 19.8764 13.759C21.3641 13.759 22.6207 14.1817 22.6207 15.4382L22.6207 17.4823Z" fill="#FFBC13"/>
<path d="M8.99091 15.7103C8.9423 14.7745 8.09642 14.4243 7.19237 14.4243C6.21752 14.4243 5.43921 14.8182 5.30287 15.7103H8.99091ZM5.27586 16.3755C5.34347 17.2835 6.1276 17.8205 7.2058 17.8205C7.95281 17.8205 8.61729 17.5774 8.83979 17.0487H10.1319C9.88059 18.1215 8.45305 18.4856 7.22432 18.4856C4.99016 18.4856 4 17.5031 4 16.1782C4 14.7196 5.02414 13.759 7.2447 13.759C9.01217 13.759 10.3072 14.4976 10.3072 16.1097V16.3755H5.27586Z" fill="#F12C2D"/>
<path d="M13.5208 17.8016C14.6851 17.8016 15.4818 17.1324 15.4818 16.1226C15.4818 15.1128 14.6851 14.4435 13.5208 14.4435C12.363 14.4435 11.5597 15.1128 11.5597 16.1226C11.5597 17.1324 12.363 17.8016 13.5208 17.8016ZM10.3071 12H11.5597L11.5595 14.5128C12.1735 13.9287 13.0193 13.7591 13.8518 13.7591C15.2477 13.7591 16.7981 14.5113 16.7981 16.1353C16.7981 17.4951 15.565 18.4857 13.8285 18.4857C12.9196 18.4857 12.064 18.2254 11.5364 17.7095C11.5364 17.9156 11.522 18.1232 11.4938 18.3197H10.2645C10.2858 18.0021 10.3071 17.6066 10.3071 17.2867L10.3071 12Z" fill="#0968F6"/>
<path d="M29 13.9255L25.1264 20H23.7237L24.8374 18.3133L21.9222 13.9255H23.3879L25.533 17.3537L27.6721 13.9255H29Z" fill="#93C822"/>
</g>
<defs>
<clipPath id="clip0_91_1045">
<rect width="25" height="8" fill="white" transform="translate(4 12)"/>
</clipPath>
</defs>
</svg>
