<svg width="32" height="32" viewBox="0 0 32 32" fill="none" xmlns="http://www.w3.org/2000/svg">
<rect x="0.5" y="0.5" width="31" height="31" rx="15.5" fill="white"/>
<rect x="0.5" y="0.5" width="31" height="31" rx="15.5" stroke="#F0F0F0"/>
<g clip-path="url(#clip0_91_1029)">
<path fill-rule="evenodd" clip-rule="evenodd" d="M22.538 10.662C22.538 11.3248 22.0006 11.862 21.338 11.862C20.6753 11.862 20.138 11.3248 20.138 10.662C20.138 9.99922 20.6753 9.46203 21.338 9.46203C22.0008 9.46203 22.538 9.99922 22.538 10.662ZM16 19.3333C14.1591 19.3333 12.6667 17.8409 12.6667 16C12.6667 14.1591 14.1591 12.6667 16 12.6667C17.8409 12.6667 19.3333 14.1591 19.3333 16C19.3333 17.8409 17.8409 19.3333 16 19.3333ZM16 10.8648C13.1639 10.8648 10.8648 13.1639 10.8648 16C10.8648 18.8361 13.1639 21.1352 16 21.1352C18.8361 21.1352 21.1352 18.8361 21.1352 16C21.1352 13.1639 18.8361 10.8648 16 10.8648ZM16 7.80187C18.6702 7.80187 18.9864 7.81203 20.0408 7.86016C21.0158 7.90469 21.5453 8.0675 21.8977 8.20453C22.3644 8.38594 22.6975 8.60266 23.0475 8.95266C23.3975 9.3025 23.6142 9.63563 23.7956 10.1025C23.9325 10.4548 24.0955 10.9844 24.14 11.9594C24.1881 13.0139 24.1983 13.3302 24.1983 16.0003C24.1983 18.6705 24.1881 18.9867 24.14 20.0411C24.0955 21.0161 23.9327 21.5456 23.7956 21.898C23.6142 22.3647 23.3975 22.6978 23.0475 23.0478C22.6977 23.3978 22.3645 23.6145 21.8977 23.7959C21.5453 23.9328 21.0158 24.0958 20.0408 24.1403C18.9864 24.1884 18.6702 24.1986 16 24.1986C13.3297 24.1986 13.0134 24.1884 11.9591 24.1403C10.9841 24.0958 10.4545 23.933 10.1022 23.7959C9.63547 23.6145 9.30234 23.3978 8.95234 23.0478C8.6025 22.698 8.38563 22.3648 8.20422 21.898C8.06734 21.5456 7.90437 21.0161 7.85984 20.0411C7.81172 18.9866 7.80156 18.6703 7.80156 16.0003C7.80156 13.3302 7.81172 13.0139 7.85984 11.9594C7.90437 10.9844 8.06719 10.4548 8.20422 10.1025C8.38563 9.63578 8.60234 9.30266 8.95234 8.95266C9.30219 8.60266 9.63531 8.38594 10.1022 8.20453C10.4545 8.06766 10.9841 7.90469 11.9591 7.86016C13.0136 7.81203 13.3298 7.80187 16 7.80187ZM16 6C13.2842 6 12.9436 6.01156 11.877 6.06016C10.8127 6.10875 10.0856 6.27781 9.44969 6.525C8.79203 6.78047 8.23438 7.1225 7.67844 7.67844C7.1225 8.23438 6.78047 8.79203 6.525 9.44969C6.27781 10.0858 6.10875 10.8127 6.06016 11.877C6.01156 12.9436 6 13.2842 6 16C6 18.7158 6.01156 19.0564 6.06016 20.123C6.10875 21.1873 6.27781 21.9142 6.525 22.5503C6.78047 23.208 7.1225 23.7656 7.67844 24.3216C8.23438 24.8775 8.79203 25.2194 9.44969 25.475C10.0858 25.7222 10.8127 25.8913 11.877 25.9398C12.9436 25.9884 13.2842 26 16 26C18.7158 26 19.0564 25.9884 20.123 25.9398C21.1873 25.8913 21.9142 25.7222 22.5503 25.475C23.208 25.2194 23.7656 24.8775 24.3216 24.3216C24.8775 23.7656 25.2194 23.208 25.475 22.5503C25.7222 21.9142 25.8913 21.1873 25.9398 20.123C25.9884 19.0564 26 18.7158 26 16C26 13.2842 25.9884 12.9436 25.9398 11.877C25.8913 10.8127 25.7222 10.0858 25.475 9.44969C25.2194 8.79203 24.8775 8.23438 24.3216 7.67844C23.7656 7.1225 23.208 6.78062 22.5503 6.525C21.9142 6.27781 21.1873 6.10875 20.123 6.06016C19.0564 6.01156 18.7158 6 16 6Z" fill="url(#paint0_radial_91_1029)"/>
</g>
<defs>
<radialGradient id="paint0_radial_91_1029" cx="0" cy="0" r="1" gradientUnits="userSpaceOnUse" gradientTransform="translate(8.98611 26.0694) scale(25.555)">
<stop stop-color="#FFB140"/>
<stop offset="0.2559" stop-color="#FF5445"/>
<stop offset="0.599" stop-color="#FC2B82"/>
<stop offset="1" stop-color="#8E40B7"/>
</radialGradient>
<clipPath id="clip0_91_1029">
<rect width="20" height="20" fill="white" transform="translate(6 6)"/>
</clipPath>
</defs>
</svg>
