<svg width="32" height="32" viewBox="0 0 32 32" fill="none" xmlns="http://www.w3.org/2000/svg">
<rect x="0.5" y="0.5" width="31" height="31" rx="15.5" fill="#5ACF5F"/>
<rect x="0.5" y="0.5" width="31" height="31" rx="15.5" stroke="#F0F0F0"/>
<path d="M21.7855 20.3912C21.541 21.133 20.5708 21.7477 19.7971 21.9276C19.2674 22.0485 18.576 22.1453 16.2482 21.1084C13.2702 19.7834 11.3526 16.533 11.2033 16.3222C11.06 16.1112 10 14.6013 10 13.0392C10 11.4774 10.7383 10.7167 11.0361 10.3905C11.2803 10.1222 11.6844 10 12.072 10C12.1975 10 12.3101 10.0066 12.4116 10.0121C12.7093 10.0259 12.8586 10.0448 13.0551 10.5496C13.2995 11.1823 13.8946 12.7441 13.9658 12.9048C14.038 13.0653 14.11 13.2828 14.0087 13.4937C13.9136 13.7115 13.8302 13.808 13.6807 13.9929C13.5312 14.1782 13.3891 14.3197 13.2398 14.5181C13.1031 14.6909 12.9486 14.876 13.1209 15.1958C13.2931 15.5087 13.8883 16.552 14.7646 17.3901C15.896 18.4717 16.8128 18.8173 17.141 18.9643C17.3854 19.0733 17.6767 19.0472 17.8551 18.8432C18.0819 18.5805 18.3621 18.1452 18.6469 17.7168C18.8495 17.4093 19.1053 17.3711 19.3739 17.4799C19.6474 17.582 21.0951 18.3508 21.3928 18.5099C21.6903 18.6704 21.8869 18.7466 21.959 18.8813C22.03 19.0158 22.03 19.6486 21.7855 20.3912Z" fill="#FCFCFC"/>
</svg>
