<svg width="32" height="32" viewBox="0 0 32 32" fill="none" xmlns="http://www.w3.org/2000/svg">
<rect x="0.5" y="0.5" width="31" height="31" rx="15.5" fill="white"/>
<rect x="0.5" y="0.5" width="31" height="31" rx="15.5" stroke="#F0F0F0"/>
<g clip-path="url(#clip0_91_1046)">
<path d="M18.8859 20.2498C17.4928 21.3838 15.4738 21.9888 13.7354 21.9888C11.2978 21.9888 9.10345 20.9931 7.44331 19.3371C7.31288 19.2069 7.42975 19.0294 7.58627 19.1308C9.37788 20.2821 11.5931 20.9747 13.8814 20.9747C15.4247 20.9747 17.1224 20.622 18.6834 19.8903C18.9192 19.7796 19.1165 20.0608 18.8859 20.2498Z" fill="#FF9900"/>
<path d="M19.465 19.5181C19.2876 19.2669 18.2879 19.3995 17.8393 19.4582C17.7026 19.4767 17.6817 19.3453 17.8048 19.2508C18.601 18.632 19.9074 18.8106 20.0597 19.018C20.2121 19.2266 20.0201 20.6728 19.2719 21.3631C19.1571 21.4691 19.0476 21.4127 19.0987 21.2721C19.2667 20.8088 19.6434 19.7705 19.465 19.5181Z" fill="#FF9900"/>
<path d="M17.8705 14.8821V14.2805C17.8705 14.1895 17.9331 14.1284 18.0083 14.1284H20.4468C20.5251 14.1284 20.5877 14.1906 20.5877 14.2805V14.7957C20.5866 14.8821 20.5209 14.995 20.404 15.1736L19.1404 17.1661C19.61 17.1534 20.1056 17.2306 20.5313 17.4957C20.6273 17.5556 20.6534 17.6432 20.6607 17.7296V18.3715C20.6607 18.4591 20.5731 18.5617 20.4813 18.5086C19.731 18.0742 18.7345 18.0269 17.905 18.5133C17.8204 18.564 17.7318 18.4626 17.7318 18.375V17.7654C17.7318 17.6674 17.7328 17.5003 17.8215 17.3516L19.2855 15.033H18.0114C17.9331 15.033 17.8705 14.972 17.8705 14.8821Z" fill="#221F1F"/>
<path d="M8.97506 18.6355H8.23317C8.16221 18.6297 8.10586 18.5709 8.10065 18.496V14.291C8.10065 14.2068 8.1643 14.14 8.2436 14.14H8.93541C9.00741 14.1435 9.0648 14.2045 9.07002 14.2806V14.8303H9.08358C9.2641 14.299 9.60322 14.0513 10.0603 14.0513C10.5246 14.0513 10.8147 14.299 11.0234 14.8303C11.2028 14.299 11.6108 14.0513 12.048 14.0513C12.359 14.0513 12.6992 14.193 12.9068 14.5111C13.1416 14.8649 13.0936 15.3788 13.0936 15.8294L13.0925 18.4834C13.0925 18.5675 13.0289 18.6355 12.9496 18.6355H12.2087C12.1347 18.6297 12.0752 18.564 12.0752 18.4834V16.2546C12.0752 16.0772 12.0898 15.6347 12.0543 15.4664C11.999 15.1841 11.8331 15.1046 11.6181 15.1046C11.4387 15.1046 11.2508 15.2371 11.1747 15.4491C11.0985 15.6612 11.1058 16.0161 11.1058 16.2546V18.4834C11.1058 18.5675 11.0422 18.6355 10.9628 18.6355H10.222C10.1469 18.6297 10.0884 18.564 10.0884 18.4834L10.0874 16.2546C10.0874 15.7856 10.1573 15.0953 9.63035 15.0953C9.09715 15.0953 9.11802 15.7683 9.11802 16.2546V18.4834C9.11802 18.5675 9.05437 18.6355 8.97506 18.6355Z" fill="#221F1F"/>
<path d="M22.6871 14.0513C23.788 14.0513 24.3838 15.0953 24.3838 16.4229C24.3838 17.7055 23.7253 18.7231 22.6871 18.7231C21.6061 18.7231 21.0176 17.679 21.0176 16.3779C21.0176 15.0688 21.6134 14.0513 22.6871 14.0513ZM22.6934 14.9098C22.1466 14.9098 22.1122 15.7326 22.1122 16.2454C22.1122 16.7594 22.1049 17.8565 22.6871 17.8565C23.2621 17.8565 23.2892 16.9714 23.2892 16.4321C23.2892 16.0772 23.2756 15.6531 23.1786 15.3166C23.0951 15.0239 22.9292 14.9098 22.6934 14.9098Z" fill="#221F1F"/>
<path d="M25.8112 18.6355H25.0725C24.9984 18.6297 24.9389 18.564 24.9389 18.4834L24.9379 14.2771C24.9441 14.1999 25.0057 14.14 25.0808 14.14H25.7685C25.8332 14.1435 25.8864 14.1919 25.901 14.2575V14.9006H25.9145C26.1222 14.3255 26.4133 14.0513 26.9256 14.0513C27.2585 14.0513 27.583 14.1838 27.7917 14.5468C27.9858 14.8833 27.9858 15.4491 27.9858 15.8559V18.5029C27.9775 18.5767 27.9159 18.6355 27.8428 18.6355H27.0989C27.031 18.6297 26.9747 18.5744 26.9674 18.5029V16.2189C26.9674 15.7591 27.0154 15.0861 26.5031 15.0861C26.3225 15.0861 26.1566 15.2198 26.0742 15.4226C25.9698 15.6796 25.9563 15.9354 25.9563 16.2189V18.4834C25.9552 18.5675 25.8905 18.6355 25.8112 18.6355Z" fill="#221F1F"/>
<path d="M15.9266 16.6267V16.4492C15.3902 16.4492 14.8236 16.576 14.8236 17.2743C14.8236 17.6281 14.9896 17.8678 15.2744 17.8678C15.4831 17.8678 15.6699 17.726 15.7878 17.4956C15.9339 17.2121 15.9266 16.9459 15.9266 16.6267ZM16.6747 18.6238C16.6257 18.6722 16.5547 18.6756 16.4994 18.6433C16.2532 18.4175 16.2094 18.3126 16.0737 18.0971C15.6668 18.5558 15.3788 18.6929 14.8508 18.6929C14.2268 18.6929 13.7405 18.2677 13.7405 17.4161C13.7405 16.7511 14.0671 16.2982 14.5315 16.077C14.9343 15.8811 15.4967 15.8465 15.9266 15.7923V15.6863C15.9266 15.4916 15.9401 15.2611 15.8368 15.0928C15.7461 14.9419 15.5728 14.8796 15.4205 14.8796C15.1377 14.8796 14.8852 15.0398 14.8236 15.3717C14.8111 15.4455 14.7621 15.5181 14.6953 15.5215L13.9753 15.4362C13.9148 15.4213 13.848 15.3671 13.8647 15.2645C14.0306 14.3011 14.8184 14.0107 15.5238 14.0107C15.8848 14.0107 16.3565 14.1168 16.6413 14.4187C17.0024 14.7909 16.968 15.2876 16.968 15.8281V17.1049C16.968 17.4887 17.1119 17.6569 17.2476 17.8643C17.2956 17.9381 17.306 18.0268 17.2455 18.0821C17.0942 18.2216 16.825 18.4809 16.6768 18.6261L16.6747 18.6238Z" fill="#221F1F"/>
<path d="M6.20051 16.6267V16.4492C5.66417 16.4492 5.09757 16.576 5.09757 17.2743C5.09757 17.6281 5.26348 17.8678 5.54835 17.8678C5.75704 17.8678 5.94382 17.726 6.06173 17.4956C6.20781 17.2121 6.20051 16.9459 6.20051 16.6267ZM6.94867 18.6238C6.89962 18.6722 6.82867 18.6756 6.77336 18.6433C6.52711 18.4175 6.48328 18.3126 6.34763 18.0971C5.94069 18.5558 5.65269 18.6929 5.1247 18.6929C4.50072 18.6929 4.01447 18.2677 4.01447 17.4161C4.01447 16.7511 4.34107 16.2982 4.80541 16.077C5.20818 15.8811 5.7706 15.8465 6.20051 15.7923V15.6863C6.20051 15.4916 6.21407 15.2611 6.11077 15.0928C6.01999 14.9419 5.84677 14.8796 5.69443 14.8796C5.41165 14.8796 5.15914 15.0398 5.09757 15.3717C5.08505 15.4455 5.03601 15.5181 4.96923 15.5215L4.24924 15.4362C4.18872 15.4213 4.12194 15.3671 4.13864 15.2645C4.30455 14.3011 5.09236 14.0107 5.79773 14.0107C6.15877 14.0107 6.63041 14.1168 6.91527 14.4187C7.27631 14.7909 7.24188 15.2876 7.24188 15.8281V17.1049C7.24188 17.4887 7.38587 17.6569 7.52152 17.8643C7.56952 17.9381 7.57996 18.0268 7.51944 18.0821C7.36813 18.2216 7.09892 18.4809 6.95075 18.6261L6.94867 18.6238Z" fill="#221F1F"/>
</g>
<defs>
<clipPath id="clip0_91_1046">
<rect width="24" height="8" fill="white" transform="translate(4 14)"/>
</clipPath>
</defs>
</svg>
