<svg width="32" height="32" viewBox="0 0 32 32" fill="none" xmlns="http://www.w3.org/2000/svg">
<g clip-path="url(#clip0_112_366)">
<path d="M31.5 16C31.5 24.5604 24.5604 31.5 16 31.5C7.43959 31.5 0.5 24.5604 0.5 16C0.5 7.43959 7.43959 0.5 16 0.5C24.5604 0.5 31.5 7.43959 31.5 16Z" fill="url(#paint0_linear_112_366)" stroke="#F0F0F0"/>
<path d="M23.7875 9.20624L20.9312 23.6125C20.9312 23.6125 20.5312 24.6125 19.4312 24.1312L12.8375 19.075L10.4375 17.9187L6.39998 16.5625C6.39998 16.5625 5.78123 16.3437 5.71873 15.8625C5.65623 15.3812 6.41873 15.125 6.41873 15.125L22.4687 8.83124C22.4687 8.82499 23.7875 8.24374 23.7875 9.20624Z" fill="white"/>
<path d="M12.325 23.45C12.325 23.45 12.1313 23.4313 11.8938 22.675C11.6563 21.9188 10.4375 17.9188 10.4375 17.9188L20.1313 11.7625C20.1313 11.7625 20.6938 11.425 20.6688 11.7625C20.6688 11.7625 20.7688 11.825 20.4688 12.1C20.1687 12.3813 12.8562 18.9563 12.8562 18.9563" fill="#D2E4F0"/>
<path d="M15.3624 21.0125L12.7562 23.3937C12.7562 23.3937 12.5499 23.55 12.3312 23.45L12.8312 19.0312" fill="#B5CFE4"/>
</g>
<defs>
<linearGradient id="paint0_linear_112_366" x1="16" y1="0" x2="16" y2="31.8833" gradientUnits="userSpaceOnUse">
<stop stop-color="#41BCE7"/>
<stop offset="1" stop-color="#22A6DC"/>
</linearGradient>
<clipPath id="clip0_112_366">
<rect width="32" height="32" fill="white"/>
</clipPath>
</defs>
</svg>
