<svg width="32" height="32" viewBox="0 0 32 32" fill="none" xmlns="http://www.w3.org/2000/svg">
<rect x="0.5" y="0.5" width="31" height="31" rx="15.5" fill="white"/>
<rect x="0.5" y="0.5" width="31" height="31" rx="15.5" stroke="#F0F0F0"/>
<g clip-path="url(#clip0_112_337)">
<path d="M22.853 14.5486C23.216 13.4591 23.091 12.2656 22.5105 11.2746C21.6375 9.75457 19.8825 8.97257 18.1685 9.34057C17.406 8.48157 16.3105 7.99307 15.162 8.00007C13.41 7.99607 11.8555 9.12407 11.3165 10.7911C10.191 11.0216 9.21946 11.7261 8.65096 12.7246C7.77146 14.2406 7.97196 16.1516 9.14696 17.4516C8.78396 18.5411 8.90896 19.7346 9.48946 20.7256C10.3625 22.2456 12.1175 23.0276 13.8315 22.6596C14.5935 23.5186 15.6895 24.0071 16.838 23.9996C18.591 24.0041 20.146 22.8751 20.685 21.2066C21.8105 20.9761 22.782 20.2716 23.3505 19.2731C24.229 17.7571 24.028 15.8476 22.8535 14.5476L22.853 14.5486ZM16.839 22.9541C16.1375 22.9551 15.458 22.7096 14.9195 22.2601C14.944 22.2471 14.9865 22.2236 15.014 22.2066L18.2 20.3666C18.363 20.2741 18.463 20.1006 18.462 19.9131V15.4216L19.8085 16.1991C19.823 16.2061 19.8325 16.2201 19.8345 16.2361V19.9556C19.8325 21.6096 18.493 22.9506 16.839 22.9541ZM10.397 20.2026C10.0455 19.5956 9.91896 18.8841 10.0395 18.1936C10.063 18.2076 10.1045 18.2331 10.134 18.2501L13.32 20.0901C13.4815 20.1846 13.6815 20.1846 13.8435 20.0901L17.733 17.8441V19.3991C17.734 19.4151 17.7265 19.4306 17.714 19.4406L14.4935 21.3001C13.059 22.1261 11.227 21.6351 10.3975 20.2026H10.397ZM9.55846 13.2481C9.90846 12.6401 10.461 12.1751 11.119 11.9336C11.119 11.9611 11.1175 12.0096 11.1175 12.0436V15.7241C11.1165 15.9111 11.2165 16.0846 11.379 16.1771L15.2685 18.4226L13.922 19.2001C13.9085 19.2091 13.8915 19.2106 13.8765 19.2041L10.6555 17.3431C9.22396 16.5141 8.73296 14.6826 9.55796 13.2486L9.55846 13.2481ZM20.6215 15.8226L16.732 13.5766L18.0785 12.7996C18.092 12.7906 18.109 12.7891 18.124 12.7956L21.345 14.6551C22.779 15.4836 23.2705 17.3181 22.442 18.7521C22.0915 19.3591 21.5395 19.8241 20.882 20.0661V16.2756C20.8835 16.0886 20.784 15.9156 20.622 15.8226H20.6215ZM21.9615 13.8056C21.938 13.7911 21.8965 13.7661 21.867 13.7491L18.681 11.9091C18.5195 11.8146 18.3195 11.8146 18.1575 11.9091L14.268 14.1551V12.6001C14.267 12.5841 14.2745 12.5686 14.287 12.5586L17.5075 10.7006C18.942 9.87307 20.776 10.3656 21.603 11.8006C21.9525 12.4066 22.079 13.1161 21.9605 13.8056H21.9615ZM13.536 16.5771L12.189 15.7996C12.1745 15.7926 12.165 15.7786 12.163 15.7626V12.0431C12.164 10.3871 13.5075 9.04507 15.1635 9.04607C15.864 9.04607 16.542 9.29207 17.0805 9.74007C17.056 9.75307 17.014 9.77657 16.986 9.79357L13.8 11.6336C13.637 11.7261 13.537 11.8991 13.538 12.0866L13.536 16.5761V16.5771ZM14.2675 15.0001L16 13.9996L17.7325 14.9996V17.0001L16 18.0001L14.2675 17.0001V15.0001Z" fill="black"/>
</g>
<defs>
<clipPath id="clip0_112_337">
<rect width="16" height="16" fill="white" transform="translate(8 8)"/>
</clipPath>
</defs>
</svg>
