<svg width="32" height="32" viewBox="0 0 32 32" fill="none" xmlns="http://www.w3.org/2000/svg">
<rect x="0.5" y="0.5" width="31" height="31" rx="15.5" fill="white"/>
<rect x="0.5" y="0.5" width="31" height="31" rx="15.5" stroke="#F0F0F0"/>
<g clip-path="url(#clip0_91_1025)">
<path d="M17.8852 15.2C18.0997 14.5434 17.5767 14 16.2954 14H13.5184L12.4779 17.2115L13.0819 18.0014H15.0574C16.3518 18.0014 17.3547 17.5412 17.6124 16.7412C17.7423 16.3312 17.5917 16.0444 17.2531 15.9011V15.891C17.5742 15.7325 17.8012 15.4845 17.8852 15.2ZM16.1919 16.7154C16.1392 16.8832 15.9906 17.0552 15.3754 17.0552H14.1148L14.3349 16.367H15.5899C16.1976 16.3656 16.2427 16.5419 16.1844 16.7154H16.1919ZM16.444 15.2215C16.3989 15.3505 16.2691 15.5082 15.7385 15.5082H14.6096L14.7978 14.9491H15.9266C16.4629 14.9462 16.4892 15.0781 16.444 15.2215Z" fill="#007ACC"/>
<path d="M19.6331 16.4516H22.1618L22.4497 15.5054H19.9379L20.1336 14.9462H22.6209L22.9087 14H18.8259L17.5315 18H22.1561L22.4591 17.0538H19.4468L19.6331 16.4516Z" fill="#007ACC"/>
<path d="M23.2625 14L22.9728 14.9462H24.4836L23.4921 18H25.0781L26.0716 14.9462H27.6896L28.0001 14H23.2625Z" fill="#007ACC"/>
<path d="M5.65945 18H4.06021L4.75259 15.8638L4.91251 15.5412L4.48918 15.8638L4.01881 16.2265L4 15.1599L5.65945 14H6.95202L5.65945 18Z" fill="#002F5E"/>
<path d="M11.4337 16.3427L10.9238 15.6846L13.3979 14H11.0931L10.1524 14.6882L6.96145 16.9176L5.42993 18H7.61055L9.24931 16.886L9.80058 17.6029C9.98873 17.7835 10.254 18.0029 11.3791 18.0029H12.6962L11.4356 16.3412L11.4337 16.3427Z" fill="#002F5E"/>
<path d="M9.97558 14.4673V14.4587C9.83442 14.3087 9.64605 14.188 9.42777 14.1079C9.20949 14.0277 8.96828 13.9906 8.72629 14H7.02356L8.29355 15.6458L9.97558 14.4673Z" fill="#002F5E"/>
</g>
<defs>
<clipPath id="clip0_91_1025">
<rect width="24" height="4" fill="white" transform="translate(4 14)"/>
</clipPath>
</defs>
</svg>
