<svg width="48" height="48" viewBox="0 0 48 48" fill="none" xmlns="http://www.w3.org/2000/svg">
<rect width="48" height="48" rx="24" fill="#EBEEE9"/>
<path d="M16.625 26.875C15.5675 26.875 14.5887 27.2463 13.8125 27.865C12.7775 28.6863 12.125 29.9575 12.125 31.375C12.125 32.2188 12.3613 33.0175 12.7775 33.6925C13.5538 34.9975 14.9825 35.875 16.625 35.875C17.7613 35.875 18.7963 35.4587 19.5838 34.75C19.9325 34.4575 20.2362 34.0975 20.4725 33.6925C20.8887 33.0175 21.125 32.2188 21.125 31.375C21.125 28.8888 19.1112 26.875 16.625 26.875ZM18.9538 30.8913L16.5575 33.1075C16.4 33.2537 16.1862 33.3325 15.9837 33.3325C15.77 33.3325 15.5562 33.2538 15.3875 33.085L14.2738 31.9713C13.9475 31.645 13.9475 31.105 14.2738 30.7787C14.6 30.4525 15.14 30.4525 15.4663 30.7787L16.0062 31.3188L17.8063 29.6537C18.1438 29.3387 18.6838 29.3613 18.9988 29.6988C19.3138 30.0363 19.2913 30.5763 18.9538 30.8913Z" fill="#0A1D27"/>
<path opacity="0.4" d="M32.915 24.5688H35.1875V22.9488C35.1875 20.62 33.2863 18.7188 30.9575 18.7188H18.0425C15.7137 18.7188 13.8125 20.62 13.8125 22.9488V27.865C14.5888 27.2463 15.5675 26.875 16.625 26.875C19.1112 26.875 21.125 28.8888 21.125 31.375C21.125 32.2188 20.8887 33.0175 20.4725 33.6925C20.2362 34.0975 19.9325 34.4575 19.5838 34.75H30.9575C33.2863 34.75 35.1875 32.8487 35.1875 30.52V29.1812H33.05C31.835 29.1812 30.7213 28.2925 30.62 27.0775C30.5525 26.3687 30.8225 25.705 31.295 25.2437C31.7112 24.8162 32.285 24.5688 32.915 24.5688Z" fill="#0A1D27"/>
<path d="M27.7063 14.4438V18.7188H18.0425C15.7137 18.7188 13.8125 20.6201 13.8125 22.9488V18.8201C13.8125 17.4813 14.6337 16.2888 15.8825 15.8163L24.815 12.4413C26.21 11.9238 27.7063 12.9476 27.7063 14.4438Z" fill="#0A1D27"/>
<path d="M36.38 25.7161V28.0336C36.38 28.6524 35.885 29.1586 35.255 29.1811H33.05C31.835 29.1811 30.7213 28.2923 30.62 27.0773C30.5525 26.3686 30.8225 25.7048 31.295 25.2436C31.7112 24.8161 32.285 24.5686 32.915 24.5686H35.255C35.885 24.5911 36.38 25.0973 36.38 25.7161Z" fill="#0A1D27"/>
<path d="M26.75 24.3438H18.875C18.4137 24.3438 18.0312 23.9612 18.0312 23.5C18.0312 23.0387 18.4137 22.6562 18.875 22.6562H26.75C27.2113 22.6562 27.5938 23.0387 27.5938 23.5C27.5938 23.9612 27.2113 24.3438 26.75 24.3438Z" fill="#0A1D27"/>
</svg>
