<svg width="32" height="32" viewBox="0 0 32 32" fill="none" xmlns="http://www.w3.org/2000/svg">
<rect x="0.5" y="0.5" width="31" height="31" rx="15.5" fill="white"/>
<rect x="0.5" y="0.5" width="31" height="31" rx="15.5" stroke="#F0F0F0"/>
<g clip-path="url(#clip0_92_1491)">
<path d="M13.9035 8.0874C13.6087 8.32797 13.3599 8.61992 13.1692 8.94912L6.87072 19.8116C6.45036 20.5416 6.33593 21.4082 6.55243 22.2222C6.76893 23.0362 7.29875 23.7315 8.02619 24.1562C8.75612 24.5765 9.62274 24.6909 10.4368 24.4744C11.2508 24.2579 11.9461 23.7281 12.3707 23.0007L17.7844 13.6647C16.5899 11.9499 14.8473 9.44873 13.9035 8.0874Z" fill="#FEBD00"/>
<path d="M9.62068 24.5851C11.3763 24.5851 12.7996 23.1619 12.7996 21.4062C12.7996 19.6505 11.3763 18.2273 9.62068 18.2273C7.86502 18.2273 6.44177 19.6505 6.44177 21.4062C6.44177 23.1619 7.86502 24.5851 9.62068 24.5851Z" fill="#25A84A"/>
<path d="M19.4396 23.0077C20.3174 24.5281 22.2616 25.0491 23.782 24.1712C25.3025 23.2934 25.8234 21.3492 24.9456 19.8288L18.6673 8.9544C17.7894 7.43396 15.8452 6.91301 14.3248 7.79084C12.8043 8.66867 12.2834 10.6129 13.1612 12.1333L19.4396 23.0077Z" fill="#2E8ADD"/>
</g>
<defs>
<clipPath id="clip0_92_1491">
<rect width="20" height="20" fill="white" transform="translate(6 6)"/>
</clipPath>
</defs>
</svg>
