<svg width="32" height="32" viewBox="0 0 32 32" fill="none" xmlns="http://www.w3.org/2000/svg">
<rect x="0.5" y="0.5" width="31" height="31" rx="15.5" fill="white"/>
<rect x="0.5" y="0.5" width="31" height="31" rx="15.5" stroke="#F0F0F0"/>
<g clip-path="url(#clip0_91_1024)">
<path d="M18.7522 13.3198C19.2552 13.3198 19.6636 12.8848 19.6636 12.3492C19.6636 11.8137 19.2552 11.3787 18.7522 11.3787C18.2492 11.3787 17.8407 11.8137 17.8407 12.3492C17.8407 12.8866 18.2492 13.3198 18.7522 13.3198Z" fill="#00A3FF"/>
<path d="M9.37115 14.0454C9.66812 14.2757 9.83462 14.6138 9.74365 15.0964L9.15658 18.4394C9.07076 18.9841 8.5781 19.3423 8.06657 19.24C7.5842 19.1413 7.22886 18.6588 7.32501 18.0793L7.65801 16.1437L7.4503 16.2442C7.06579 16.4288 6.61262 16.2442 6.44096 15.8312C6.2693 15.4181 6.44096 14.9337 6.82547 14.7473L8.37554 14.0143C8.74117 13.8188 9.08964 13.8443 9.37115 14.0454Z" fill="#00A3FF"/>
<path d="M9.96399 13.8844C10.1665 14.1421 10.4044 14.4656 10.2877 15.2333L9.9701 17.0446L10.0285 18.5032C10.0405 19.0223 10.2739 19.2563 10.6859 19.2563H11.7193C12.0472 19.2563 12.1793 18.9894 12.3115 18.6531L13.0994 16.5822L13.1801 18.5599C13.187 18.9985 13.3964 19.2581 13.774 19.2581H14.9516C15.2863 19.2581 15.4254 19.0424 15.573 18.6568L17.0768 14.6904C17.2398 14.2792 17.1454 13.8826 16.7386 13.8826H15.9815C15.7 13.8826 15.5129 13.9849 15.4013 14.2701L14.3868 16.9277L14.2941 14.557C14.2787 14.0525 14.0521 13.8844 13.7895 13.8844H13.0222C12.7183 13.8844 12.5415 14.0105 12.4471 14.2573L11.4275 16.9295L11.3365 14.5003C11.3228 14.0452 11.182 13.8844 10.8387 13.8844H10.1761C10.1635 13.8844 9.96399 13.8844 9.96399 13.8844Z" fill="#002F5E"/>
<path d="M18.1719 19.2564C18.6268 19.2564 18.7385 18.8927 18.8037 18.4814L19.4474 14.7198C19.564 14.1441 19.4319 13.8809 18.9151 13.8809H18.3058C17.808 13.8809 17.6381 14.1404 17.5711 14.5645L16.9068 18.5435C16.8416 18.9438 16.9772 19.2564 17.3634 19.2564H18.1719Z" fill="#002F5E"/>
<path d="M22.714 18.5271L23.0351 16.4745C23.0797 16.098 23.0145 15.8311 22.8257 15.6629C22.527 15.4034 22.1047 15.5167 21.8901 15.7781C21.751 15.9353 21.6892 16.1492 21.6154 16.5823L21.2928 18.4832C21.2309 18.8579 21.1331 19.2564 20.6661 19.2564H19.8714C19.3753 19.2564 19.341 18.7958 19.3977 18.5271L20.0689 14.5645C20.1341 14.2007 20.2541 13.8827 20.8035 13.8827H21.3734C21.8145 13.8827 22.0789 14.0545 21.94 14.7198L21.8797 15.0488C22.1836 14.3853 22.9321 13.8809 23.5895 13.8809C24.0873 13.8809 24.3156 13.9741 24.592 14.2391C25.052 14.6778 25.1378 15.3358 25.0348 15.8567L24.5765 18.4814C24.5131 18.878 24.4152 19.2564 23.9654 19.2564H23.1741C22.8291 19.2564 22.6454 18.9877 22.714 18.5271Z" fill="#002F5E"/>
</g>
<defs>
<clipPath id="clip0_91_1024">
<rect width="20" height="9" fill="white" transform="translate(6 11)"/>
</clipPath>
</defs>
</svg>
