<svg width="32" height="32" viewBox="0 0 32 32" fill="none" xmlns="http://www.w3.org/2000/svg">
<rect x="0.5" y="0.5" width="31" height="31" rx="15.5" fill="white"/>
<rect x="0.5" y="0.5" width="31" height="31" rx="15.5" stroke="#F0F0F0"/>
<g clip-path="url(#clip0_91_1044)">
<path d="M9.98895 16.7253V13.415H12.1728V13.8301H10.4412V14.8478H11.9963V15.2629H10.4412V16.3004H12.2941V16.7154H9.98895V16.7253Z" fill="#E43225"/>
<path d="M14.5882 16.7253L13.8382 15.8458L13.0882 16.7253H12.5588L13.5845 15.5494L12.5037 14.334H13.0992L13.8382 15.2431L14.5882 14.334H15.1728L14.147 15.5494L15.1176 16.7253H14.5882Z" fill="#E43225"/>
<path d="M15.8456 16.3695V18H15.3934V15.5592C15.3934 14.9367 15.9228 14.2747 16.75 14.2747C17.5882 14.2747 18.2169 14.749 18.2169 15.5296C18.2169 16.2905 17.5772 16.8142 16.8493 16.8142C16.4963 16.8142 16.022 16.6758 15.8456 16.3695ZM17.7426 15.5296C17.7426 14.996 17.3566 14.6798 16.6728 14.7094C16.3419 14.7193 15.8345 14.9367 15.8787 15.6976C15.8897 15.9446 16.1765 16.409 16.8051 16.409C17.3456 16.409 17.7426 16.1324 17.7426 15.5296Z" fill="#E43225"/>
<path d="M18.6029 16.7254V14.3341H19.0551V14.591C19.2757 14.3637 19.6176 14.2847 19.9816 14.2847V14.7194C19.9264 14.7096 19.386 14.6503 19.0551 15.2827V16.7353H18.6029V16.7254Z" fill="#E43225"/>
<path d="M20.1029 15.5296C20.1029 14.8379 20.6544 14.2747 21.4154 14.2747C22.3639 14.2747 22.7169 14.8379 22.7169 15.5592V15.7569H20.5992C20.6323 16.2114 21.0845 16.4486 21.5036 16.4387C21.8125 16.4288 22.022 16.3498 22.2426 16.1521L22.5404 16.4288C22.2647 16.666 21.9117 16.8241 21.4816 16.8241C20.6764 16.8142 20.1029 16.2806 20.1029 15.5296ZM21.3823 14.6798C20.9522 14.6798 20.6213 15.0158 20.5992 15.3814H22.2426C22.2426 15.0256 21.9558 14.6798 21.3823 14.6798Z" fill="#E43225"/>
<path d="M22.9485 16.3894L23.2794 16.1226C23.2683 16.1226 23.4448 16.2807 23.4669 16.2906C23.5441 16.3499 23.6213 16.3894 23.7205 16.4092C24.0073 16.4784 24.5257 16.4586 24.5698 16.1029C24.5919 15.9052 24.4264 15.7965 24.2389 15.7274C23.9963 15.6483 23.7316 15.6187 23.4889 15.5199C23.2132 15.4112 23.0367 15.2234 23.0367 14.9467C23.0367 14.2254 24.1838 14.1068 24.7022 14.4428C24.7242 14.4626 24.9779 14.6701 24.9669 14.6701L24.636 14.9072C24.4705 14.7294 24.3161 14.6404 23.9632 14.6404C23.7867 14.6404 23.5441 14.7096 23.5 14.8776C23.4338 15.1147 23.7316 15.2037 23.9301 15.2531C24.1948 15.3124 24.4816 15.3519 24.7132 15.4803C25.033 15.6582 25.1103 16.0436 24.9889 16.34C24.8566 16.6661 24.4595 16.7946 24.1066 16.8045C23.6875 16.8242 23.3235 16.7056 23.0257 16.4388C23.0036 16.4388 22.9485 16.3894 22.9485 16.3894Z" fill="#E43225"/>
<path d="M25.2757 16.3894L25.6066 16.1226C25.5955 16.1226 25.772 16.2807 25.7941 16.2906C25.8713 16.3499 25.9485 16.3894 26.0478 16.4092C26.3345 16.4784 26.8529 16.4586 26.897 16.1029C26.9191 15.9052 26.7536 15.7965 26.5661 15.7274C26.3235 15.6483 26.0588 15.6187 25.8161 15.5199C25.5404 15.4112 25.3639 15.2234 25.3639 14.9467C25.3639 14.2254 26.511 14.1068 27.0294 14.4428C27.0514 14.4626 27.3051 14.6701 27.2941 14.6701L26.9632 14.9072C26.7978 14.7294 26.6433 14.6404 26.2904 14.6404C26.1139 14.6404 25.8713 14.7096 25.8272 14.8776C25.761 15.1147 26.0588 15.2037 26.2573 15.2531C26.522 15.3124 26.8088 15.3519 27.0404 15.4803C27.3603 15.6582 27.4375 16.0436 27.3161 16.34C27.1838 16.6661 26.7867 16.7946 26.4338 16.8045C26.0147 16.8242 25.6507 16.7056 25.3529 16.4388C25.3308 16.4388 25.2757 16.3894 25.2757 16.3894Z" fill="#E43225"/>
<path d="M27.4265 14.3339V14.077H27.3272V14.0276H27.5919V14.077H27.4927V14.3339H27.4265Z" fill="#E43225"/>
<path d="M27.9228 14.3339V14.0968L27.8235 14.3339H27.8014L27.7022 14.0968V14.3339H27.647V14.0276H27.7353L27.8235 14.2351L27.9117 14.0276H28V14.3339H27.9228Z" fill="#E43225"/>
<path d="M6.92279 16.7253L6.59191 15.9348H4.80515L4.47427 16.7253H4L5.43382 13.415H5.95221L7.375 16.7253H6.92279ZM5.67647 13.8893L5.00368 15.5297H6.40441L5.67647 13.8893Z" fill="#F7971D"/>
<path d="M7.67279 16.7253V13.415H8.13603V16.7253H7.67279Z" fill="#F7971D"/>
<path d="M8.83087 16.7252V14.3833H9.29411V16.7252H8.83087Z" fill="#F7971D"/>
<path d="M9.73532 13.6225C9.73532 13.6126 9.73532 13.6126 9.73532 13.6028C9.73532 13.5929 9.73532 13.5929 9.73532 13.583C9.38238 13.5731 9.09562 13.3162 9.08459 13C9.07356 13 9.06253 13 9.0515 13C9.04047 13 9.02944 13 9.01841 13C9.00738 13.3162 8.72062 13.5731 8.36768 13.583C8.36768 13.5929 8.36768 13.5929 8.36768 13.6028C8.36768 13.6126 8.36768 13.6126 8.36768 13.6225C8.72062 13.6324 9.00738 13.8893 9.01841 14.2055C9.02944 14.2055 9.04047 14.2055 9.0515 14.2055C9.06253 14.2055 9.07356 14.2055 9.08459 14.2055C9.09562 13.8893 9.38238 13.6324 9.73532 13.6225Z" fill="#F7971D"/>
</g>
<defs>
<clipPath id="clip0_91_1044">
<rect width="24" height="5" fill="white" transform="translate(4 13)"/>
</clipPath>
</defs>
</svg>
