<svg width="32" height="32" viewBox="0 0 32 32" fill="none" xmlns="http://www.w3.org/2000/svg">
<rect x="0.5" y="0.5" width="31" height="31" rx="15.5" fill="white"/>
<rect x="0.5" y="0.5" width="31" height="31" rx="15.5" stroke="#F0F0F0"/>
<g clip-path="url(#clip0_91_1031)">
<path fill-rule="evenodd" clip-rule="evenodd" d="M10.8792 15.9999C10.8792 15.4154 10.9762 14.8548 11.1496 14.3292L8.11633 12.0129C7.52514 13.2132 7.19214 14.5657 7.19214 15.9999C7.19214 17.433 7.52486 18.7846 8.11506 19.9841L11.1467 17.6634C10.975 17.1401 10.8792 16.5817 10.8792 15.9999Z" fill="#FBBC05"/>
<path fill-rule="evenodd" clip-rule="evenodd" d="M16.2049 10.6818C17.4749 10.6818 18.622 11.1318 19.5233 11.8682L22.1451 9.25C20.5474 7.85908 18.4991 7 16.2049 7C12.6432 7 9.58207 9.03681 8.11633 12.013L11.1495 14.3292C11.8484 12.2078 13.8406 10.6818 16.2049 10.6818Z" fill="#EA4335"/>
<path fill-rule="evenodd" clip-rule="evenodd" d="M16.2049 21.318C13.8408 21.318 11.8485 19.7921 11.1496 17.6707L8.11633 19.9865C9.58207 22.9631 12.6432 24.9999 16.2049 24.9999C18.4032 24.9999 20.502 24.2193 22.0772 22.7568L19.198 20.531C18.3856 21.0427 17.3626 21.318 16.2049 21.318Z" fill="#34A853"/>
<path fill-rule="evenodd" clip-rule="evenodd" d="M24.8078 16.0001C24.8078 15.4682 24.7259 14.8955 24.603 14.3638H16.2048V17.841H21.039C20.7972 19.0266 20.1394 19.938 19.1979 20.5312L22.0771 22.757C23.7316 21.2213 24.8078 18.9337 24.8078 16.0001Z" fill="#4285F4"/>
</g>
<defs>
<clipPath id="clip0_91_1031">
<rect width="18" height="18" fill="white" transform="translate(7 7)"/>
</clipPath>
</defs>
</svg>
