<svg width="32" height="32" viewBox="0 0 32 32" fill="none" xmlns="http://www.w3.org/2000/svg">
<g clip-path="url(#clip0_91_1040)">
<rect width="32" height="32" rx="16" fill="#1A4A7F"/>
<path fill-rule="evenodd" clip-rule="evenodd" d="M15.1581 33C12.0845 32.4929 9.23829 31.0555 7 28.8799L20.8166 16.1423L12.9192 18.0676C12.3964 18.1967 11.8533 18.2199 11.3215 18.136C10.7898 18.052 10.2799 17.8626 9.82175 17.5788C9.36358 17.2949 8.96625 16.9223 8.65292 16.4827C8.3396 16.043 8.11654 15.5451 7.99676 15.018C7.75393 13.9454 7.94006 12.8199 8.51507 11.8837C9.09008 10.9475 10.008 10.2755 11.0714 10.0123L27.5102 6C29.5123 7.68382 31.0531 9.85325 31.9866 12.3027C32.9201 14.7521 33.2154 17.4004 32.8445 19.9966C32.4736 22.5928 31.4488 25.0508 29.8672 27.1378C28.2856 29.2247 26.1996 30.8714 23.8069 31.9219C23.7608 31.3751 23.8145 30.8052 24.0062 30.2507L26.6131 22.4418L15.1581 33Z" fill="url(#paint0_linear_91_1040)"/>
</g>
<rect x="0.5" y="0.5" width="31" height="31" rx="15.5" stroke="#F0F0F0"/>
<defs>
<linearGradient id="paint0_linear_91_1040" x1="39.9466" y1="4.35197" x2="-12.7623" y2="52.5074" gradientUnits="userSpaceOnUse">
<stop stop-color="#FFB800"/>
<stop offset="1" stop-color="#FFF11D"/>
</linearGradient>
<clipPath id="clip0_91_1040">
<rect width="32" height="32" rx="16" fill="white"/>
</clipPath>
</defs>
</svg>
