<svg width="32" height="32" viewBox="0 0 32 32" fill="none" xmlns="http://www.w3.org/2000/svg">
<rect x="0.5" y="0.5" width="31" height="31" rx="15.5" fill="#F8FF13"/>
<rect x="0.5" y="0.5" width="31" height="31" rx="15.5" stroke="#F0F0F0"/>
<g clip-path="url(#clip0_91_1026)">
<path d="M4.59037 11.0404L3.05505 16.3326H5.70419L4.68065 19.9597H27.4397L28.9448 14.6081H20.9371L21.9606 11.0404H4.59037Z" fill="black"/>
<path d="M8.83508 15.292L9.0759 14.4298H10.2199C10.8219 14.4298 11.1832 14.1622 11.3638 13.5973L11.4542 13.2703C11.6649 12.5568 11.3338 12.081 10.5511 12.081H5.61392L4.68066 15.2622H8.83508V15.292ZM10.5511 12.973L10.3403 13.6568H9.2866L9.49739 12.973H10.5511Z" fill="#F8FF13"/>
<path d="M11.8756 15.292L12.1766 14.7568H13.5915V15.292H14.5247V12.1108H12.7184L10.8219 15.292H11.8756ZM13.2002 12.973H13.5915V13.9838H12.6282L13.2002 12.973Z" fill="#F8FF13"/>
<path d="M18.2878 13.5973L18.378 13.3C18.5888 12.5567 18.2577 12.1107 17.4749 12.1107H15.7289L14.7957 15.292H15.759L15.9999 14.4297H16.6019L16.873 15.292H17.8663L17.5653 14.3702C17.9265 14.2514 18.1674 14.0136 18.2878 13.5973ZM16.4213 12.973H17.4449L17.2642 13.6567H16.2107L16.4213 12.973Z" fill="#F8FF13"/>
<path d="M19.191 15.292L20.1241 12.1108H19.1609L18.2277 15.292H19.191Z" fill="#F8FF13"/>
<path d="M13.1701 15.738L12.0562 17.0164L11.6347 15.738H7.45025L6.54712 18.9192H10.7015L11.2133 17.1651L11.5444 18.1461H12.1465L13.0497 17.1056L12.5378 18.9192H13.5012L14.4043 15.738H13.1701Z" fill="#F8FF13"/>
<path d="M15.6989 15.738L13.8022 18.9192H14.886L15.1871 18.384H16.602V18.9192H17.5351V15.738H15.6989ZM15.6085 17.6111L16.1805 16.6001H16.5719V17.6111H15.6085Z" fill="#F8FF13"/>
<path d="M20.7865 16.6596L21.0274 15.738H18.1073L17.8363 16.6596H18.89L18.2579 18.9192H19.2211L19.8533 16.6596H20.7865Z" fill="#F8FF13"/>
<path d="M22.0508 16.6596H23.526L23.7969 15.738H22.2315C21.6294 15.738 21.2681 16.0056 21.0876 16.5704L20.7564 17.7299C20.5457 18.4732 20.8767 18.9192 21.6595 18.9192H22.8637L23.1346 17.9975H21.6595L22.0508 16.6596Z" fill="#F8FF13"/>
<path d="M26.2655 15.738L25.9343 16.8975H24.8506L25.1817 15.738H24.2184L23.2852 18.9192H24.2484L24.5796 17.7892H25.6935L25.3624 18.9192H26.3257L27.2288 15.738H26.2655Z" fill="#F8FF13"/>
</g>
<defs>
<clipPath id="clip0_91_1026">
<rect width="26" height="9" fill="white" transform="translate(3 11)"/>
</clipPath>
</defs>
</svg>
