<svg width="28" height="28" viewBox="0 0 28 28" fill="none" xmlns="http://www.w3.org/2000/svg">
<path opacity="0.4" d="M6.94189 16.2531L9.97853 24.5369C9.97853 24.5369 10.3582 25.312 10.7647 25.312C11.1713 25.312 17.2179 19.1122 17.2179 19.1122L23.9419 6.31201L7.05025 14.1147L6.94189 16.2531Z" fill="#0E384E"/>
<path d="M11.4933 18.312L10.9514 24.473C10.9514 24.473 10.7246 26.3608 12.4888 24.473C14.2531 22.5852 15.9419 21.1295 15.9419 21.1295" fill="#4B7624"/>
<path d="M7.58018 16.1355L1.48253 14.173C1.48253 14.173 0.753796 13.881 0.988449 13.2187C1.03675 13.0822 1.1342 12.966 1.42569 12.7663C2.77677 11.836 26.433 3.43721 26.433 3.43721C26.433 3.43721 27.1009 3.21489 27.4949 3.36276C27.5923 3.39256 27.68 3.4474 27.749 3.52166C27.8179 3.59592 27.8657 3.68694 27.8873 3.78541C27.9299 3.95934 27.9477 4.13828 27.9402 4.31706C27.9384 4.47172 27.9194 4.61507 27.905 4.83986C27.761 7.13614 23.4493 24.274 23.4493 24.274C23.4493 24.274 23.1914 25.2768 22.2671 25.3111C22.04 25.3184 21.8137 25.2804 21.6018 25.1994C21.3898 25.1184 21.1965 24.9961 21.0335 24.8398C19.2198 23.2987 12.951 19.1372 11.5657 18.222C11.5345 18.201 11.5082 18.1736 11.4886 18.1416C11.469 18.1097 11.4565 18.074 11.4521 18.0369C11.4327 17.9404 11.5389 17.821 11.5389 17.821C11.5389 17.821 22.4545 8.23687 22.745 7.23074C22.7675 7.1528 22.6825 7.11434 22.5684 7.14848C21.8434 7.41194 9.27543 15.2518 7.88833 16.117C7.78848 16.1468 7.68295 16.1532 7.58018 16.1355Z" fill="#0E384E"/>
</svg>
