<svg width="24" height="24" viewBox="0 0 24 24" fill="none" xmlns="http://www.w3.org/2000/svg">
<path d="M17.6666 13C16.7266 13 15.8566 13.33 15.1666 13.88C14.2466 14.61 13.6666 15.74 13.6666 17C13.6666 17.75 13.8766 18.46 14.2466 19.06C14.9366 20.22 16.2066 21 17.6666 21C18.6766 21 19.5966 20.63 20.2966 20C20.6066 19.74 20.8766 19.42 21.0866 19.06C21.4566 18.46 21.6666 17.75 21.6666 17C21.6666 14.79 19.8766 13 17.6666 13ZM19.7366 16.57L17.6066 18.54C17.4666 18.67 17.2766 18.74 17.0966 18.74C16.9066 18.74 16.7166 18.67 16.5666 18.52L15.5766 17.53C15.2866 17.24 15.2866 16.76 15.5766 16.47C15.8666 16.18 16.3466 16.18 16.6366 16.47L17.1166 16.95L18.7166 15.47C19.0166 15.19 19.4966 15.21 19.7766 15.51C20.0566 15.81 20.0366 16.28 19.7366 16.57Z" fill="#C0F54D"/>
<path d="M20.7567 21.5C20.7567 21.78 20.5367 22 20.2567 22H3.07666C2.79666 22 2.57666 21.78 2.57666 21.5C2.57666 17.36 6.65666 14 11.6667 14C12.6967 14 13.6967 14.14 14.6167 14.41C14.0267 15.11 13.6667 16.02 13.6667 17C13.6667 17.75 13.8766 18.46 14.2466 19.06C14.4466 19.4 14.7067 19.71 15.0067 19.97C15.7067 20.61 16.6367 21 17.6667 21C18.7867 21 19.7967 20.54 20.5167 19.8C20.6767 20.34 20.7567 20.91 20.7567 21.5Z" fill="#C0F54D" fill-opacity="0.6"/>
<path d="M11.6666 12C14.4281 12 16.6666 9.76142 16.6666 7C16.6666 4.23858 14.4281 2 11.6666 2C8.9052 2 6.66663 4.23858 6.66663 7C6.66663 9.76142 8.9052 12 11.6666 12Z" fill="#C0F54D"/>
</svg>
