<svg width="64" height="44" viewBox="0 0 64 44" fill="none" xmlns="http://www.w3.org/2000/svg">
<rect width="64" height="44" rx="11" fill="#F4F6FA"/>
<g clip-path="url(#clip0_88_502)">
<path d="M39.7301 13.0278C35.9471 13.0278 32.5663 15.0663 32.5663 18.8318C32.5663 23.1505 38.5621 23.4487 38.5621 25.6186C38.5621 26.5323 37.5551 27.35 35.8346 27.35C33.3935 27.35 31.569 26.2074 31.569 26.2074L30.7882 30.0078C30.7882 30.0078 32.8901 30.9729 35.6805 30.9729C39.8165 30.9729 43.0714 28.8347 43.0714 25.0044C43.0714 20.4406 37.0506 20.1512 37.0506 18.1377C37.0506 17.4219 37.8773 16.638 39.5925 16.638C41.5279 16.638 43.1066 17.4691 43.1066 17.4691L43.8709 13.799C43.8709 13.799 42.1525 13.0278 39.7295 13.0278H39.7301ZM5.11834 13.305L5.02661 13.8589C5.02661 13.8589 6.61808 14.1616 8.05168 14.7659C9.89754 15.4583 10.0287 15.8619 10.3397 17.1137L13.7269 30.6869H18.2677L25.2629 13.305H20.7327L16.2378 25.123L14.4037 15.1051C14.2357 13.9587 13.3834 13.3045 12.3407 13.3045H5.11888L5.11834 13.305ZM27.0847 13.305L23.5311 30.6869H27.8511L31.3919 13.305H27.0847ZM51.1786 13.305C50.137 13.305 49.585 13.8849 49.1802 14.8978L42.8511 30.6869H47.3813L48.2575 28.0552H53.7765L54.3093 30.6869H58.3066L54.8197 13.305H51.1786ZM51.7679 18.0013L53.1109 24.5237H49.5135L51.7685 18.0013H51.7679Z" fill="#1434CB"/>
</g>
<defs>
<clipPath id="clip0_88_502">
<rect width="53.3333" height="18" fill="white" transform="translate(5 13)"/>
</clipPath>
</defs>
</svg>
